<svg width="14" height="25" viewBox="0 0 14 25" fill="none" xmlns="http://www.w3.org/2000/svg">
<path d="M6.275 21.2C5.20833 21.1333 4.30833 20.9333 3.575 20.6C2.84167 20.2667 2.24167 19.85 1.775 19.35C1.325 18.8333 0.975 18.25 0.725 17.6C0.491667 16.95 0.341667 16.2667 0.275 15.55H2.375C2.44167 16.0333 2.53333 16.5 2.65 16.95C2.78333 17.4 2.99167 17.8 3.275 18.15C3.55833 18.5 3.93333 18.8 4.4 19.05C4.88333 19.2833 5.50833 19.4333 6.275 19.5V12.55C5.44167 12.4 4.7 12.2083 4.05 11.975C3.4 11.725 2.85 11.4167 2.4 11.05C1.95 10.6667 1.6 10.2083 1.35 9.675C1.11667 9.14167 1 8.5 1 7.75C1 7.1 1.125 6.49167 1.375 5.925C1.64167 5.35833 2 4.86667 2.45 4.45C2.91667 4.01667 3.475 3.66667 4.125 3.4C4.775 3.13333 5.49167 2.975 6.275 2.925V0.674999H7.75V2.95C9.26667 3.08333 10.4667 3.56667 11.35 4.4C12.25 5.21667 12.7833 6.35833 12.95 7.825H11C10.8167 6.85833 10.4583 6.125 9.925 5.625C9.40833 5.10833 8.68333 4.78333 7.75 4.65V10.9C8.66667 11.0667 9.475 11.275 10.175 11.525C10.875 11.7583 11.4583 12.075 11.925 12.475C12.3917 12.8583 12.7417 13.3333 12.975 13.9C13.2083 14.4667 13.325 15.15 13.325 15.95C13.325 16.6667 13.1833 17.3333 12.9 17.95C12.6333 18.5667 12.25 19.1083 11.75 19.575C11.2667 20.0417 10.6833 20.4167 10 20.7C9.31667 20.9833 8.56667 21.15 7.75 21.2V24.375H6.275V21.2ZM11.25 16.1C11.25 15.6333 11.1917 15.2333 11.075 14.9C10.975 14.55 10.7917 14.2417 10.525 13.975C10.2583 13.7083 9.9 13.4833 9.45 13.3C9 13.1167 8.43333 12.95 7.75 12.8V19.5C8.25 19.45 8.70833 19.3333 9.125 19.15C9.55833 18.9667 9.93333 18.725 10.25 18.425C10.5667 18.125 10.8083 17.7833 10.975 17.4C11.1583 17 11.25 16.5667 11.25 16.1ZM2.975 7.55C2.975 7.95 3.01667 8.30833 3.1 8.625C3.18333 8.94167 3.34167 9.225 3.575 9.475C3.825 9.725 4.15833 9.95 4.575 10.15C5.00833 10.3333 5.575 10.5 6.275 10.65V4.625C5.225 4.70833 4.40833 5.025 3.825 5.575C3.25833 6.10833 2.975 6.76667 2.975 7.55Z" fill="#5947B3"/>
</svg>
