<svg width="16" height="17" viewBox="0 0 16 17" fill="none" xmlns="http://www.w3.org/2000/svg">
<path fill-rule="evenodd" clip-rule="evenodd" d="M0 2.75C0 2.55109 0.0790201 2.36032 0.21967 2.21967C0.36032 2.07902 0.55109 2 0.75 2H13.25C13.4489 2 13.6397 2.07902 13.7803 2.21967C13.921 2.36032 14 2.55109 14 2.75C14 2.94891 13.921 3.13968 13.7803 3.28033C13.6397 3.42098 13.4489 3.5 13.25 3.5H0.75C0.55109 3.5 0.36032 3.42098 0.21967 3.28033C0.0790201 3.13968 0 2.94891 0 2.75ZM0 7.75C0 7.55109 0.0790201 7.36032 0.21967 7.21967C0.36032 7.07902 0.55109 7 0.75 7H9.25C9.4489 7 9.6397 7.07902 9.7803 7.21967C9.921 7.36032 10 7.55109 10 7.75C10 7.94891 9.921 8.13968 9.7803 8.28033C9.6397 8.42098 9.4489 8.5 9.25 8.5H0.75C0.55109 8.5 0.36032 8.42098 0.21967 8.28033C0.0790201 8.13968 0 7.94891 0 7.75ZM0.75 12C0.55109 12 0.36032 12.079 0.21967 12.2197C0.0790201 12.3603 0 12.5511 0 12.75C0 12.9489 0.0790201 13.1397 0.21967 13.2803C0.36032 13.421 0.55109 13.5 0.75 13.5H5.25C5.4489 13.5 5.6397 13.421 5.7803 13.2803C5.921 13.1397 6 12.9489 6 12.75C6 12.5511 5.921 12.3603 5.7803 12.2197C5.6397 12.079 5.4489 12 5.25 12H0.75Z" fill="#333333"/>
<path fill-rule="evenodd" clip-rule="evenodd" d="M11.9697 16.0303C11.829 15.8897 11.75 15.6989 11.75 15.5V13.5H9.75C9.55109 13.5 9.36032 13.421 9.21967 13.2803C9.07902 13.1397 9 12.9489 9 12.75C9 12.5511 9.07902 12.3603 9.21967 12.2197C9.36032 12.079 9.55109 12 9.75 12H11.75V10C11.75 9.8011 11.829 9.6103 11.9697 9.4697C12.1103 9.329 12.3011 9.25 12.5 9.25C12.6989 9.25 12.8897 9.329 13.0303 9.4697C13.171 9.6103 13.25 9.8011 13.25 10V12H15.25C15.4489 12 15.6397 12.079 15.7803 12.2197C15.921 12.3603 16 12.5511 16 12.75C16 12.9489 15.921 13.1397 15.7803 13.2803C15.6397 13.421 15.4489 13.5 15.25 13.5H13.25V15.5C13.25 15.6989 13.171 15.8897 13.0303 16.0303C12.8897 16.171 12.6989 16.25 12.5 16.25C12.3011 16.25 12.1103 16.171 11.9697 16.0303Z" fill="#333333"/>
</svg>
