<svg width="100" height="84" viewBox="0 0 100 84" fill="none" xmlns="http://www.w3.org/2000/svg">
<path fill-rule="evenodd" clip-rule="evenodd" d="M86 82H14C6 82 2 78 2 70V30C2 22 6 18 14 18C14.8 18 16 18 18 18C30 18 30 2 42 2C42.4 2 55.6 2 58 2C70 2 70 18 82 18C84 18 85.2 18 86 18C94 18 98 22 98 30V70C98 77.8 93.8 82 86 82Z" stroke="#5947B3" stroke-width="3" stroke-miterlimit="10"/>
<path d="M51.6 37.7999C51.6 36.9999 51 36.1999 50 36.1999C49 36.1999 48.6 36.9999 48.6 37.7999V44.7999H41.6C40.8 44.7999 40 45.3999 40 46.3999C40 47.3999 40.6 47.9999 41.6 47.9999H48.6V54.7999C48.6 55.5999 49.2 56.3999 50.2 56.3999C51.2 56.3999 51.8 55.7999 51.8 54.7999V47.7999H58.6C59.4 47.7999 60.2 47.1999 60.2 46.1999C60.2 45.1999 59.4 44.7999 58.6 44.7999H51.6V37.7999ZM50 24.3999C37.8 24.3999 28 34.1999 28 46.3999C28 58.5999 37.8 68.3999 50 68.3999C62.2 68.3999 72 58.5999 72 46.3999C72 34.1999 62 24.3999 50 24.3999ZM31 46.3999C31 35.9999 39.6 27.3999 50 27.3999C60.4 27.3999 69 35.9999 69 46.3999C69 56.7999 60.4 65.3999 50 65.3999C39.6 65.3999 30.8 56.7999 31 46.3999Z" fill="#5947B3"/>
</svg>
