<svg width="8" height="10" viewBox="0 0 8 10" fill="none" xmlns="http://www.w3.org/2000/svg">
<g clip-path="url(#clip0)">
<path fill-rule="evenodd" clip-rule="evenodd" d="M7.58522 4.91475C7.8049 5.13442 7.8049 5.49058 7.58522 5.71025L4.39775 8.89772C4.17808 9.1174 3.82192 9.1174 3.60225 8.89772L0.414751 5.71025C0.195083 5.49058 0.195083 5.13442 0.414751 4.91475C0.634418 4.69508 0.990578 4.69508 1.21025 4.91475L3.4375 7.14197V1.5625C3.4375 1.25184 3.68934 1 4 1C4.31066 1 4.5625 1.25184 4.5625 1.5625V7.14197L6.78977 4.91475C7.00945 4.69508 7.36555 4.69508 7.58522 4.91475Z" fill="#5947B3"/>
</g>
<defs>
<clipPath id="clip0">
<rect width="8" height="8.6" fill="white" transform="translate(0 0.699951)"/>
</clipPath>
</defs>
</svg>
