<svg width="16" height="17" viewBox="0 0 16 17" fill="none" xmlns="http://www.w3.org/2000/svg">
<g clip-path="url(#clip0)">
<path fill-rule="evenodd" clip-rule="evenodd" d="M4.75 0.5C5.16421 0.5 5.5 0.835786 5.5 1.25V2.5H10.5V1.25C10.5 0.835786 10.8358 0.5 11.25 0.5C11.6642 0.5 12 0.835786 12 1.25V2.5H13.25C14.2165 2.5 15 3.2835 15 4.25V14.75C15 15.7165 14.2165 16.5 13.25 16.5H2.75C1.7835 16.5 1 15.7165 1 14.75V4.25C1 3.2835 1.7835 2.5 2.75 2.5H4V1.25C4 0.835786 4.33579 0.5 4.75 0.5ZM13.25 4C13.3881 4 13.5 4.11193 13.5 4.25V6.5H2.5V4.25C2.5 4.11193 2.61193 4 2.75 4H13.25ZM2.5 8V14.75C2.5 14.8881 2.61193 15 2.75 15H13.25C13.3881 15 13.5 14.8881 13.5 14.75V8H2.5Z" fill="#B3B3B3"/>
</g>
<defs>
<clipPath id="clip0">
<rect width="16" height="16" fill="white" transform="translate(0 0.5)"/>
</clipPath>
</defs>
</svg>
