<svg width="16" height="16" viewBox="0 0 16 16" fill="none" xmlns="http://www.w3.org/2000/svg">
<path fill-rule="evenodd" clip-rule="evenodd" d="M3.86883 4.6088C4.87737 3.46226 6.35466 2.73999 7.99997 2.73999C10.535 2.73999 12.6703 4.45562 13.3067 6.78886L13.2839 6.79495C14.0121 9.51274 12.5714 12.3018 10.0231 13.3221C9.63856 13.4761 9.45164 13.9126 9.6056 14.2971C9.75955 14.6817 10.1961 14.8686 10.5806 14.7146C13.4496 13.566 15.2158 10.6592 14.946 7.6097C14.9569 7.54224 14.9586 7.47215 14.9501 7.40093C14.5351 3.9302 11.5822 1.23999 7.99997 1.23999C5.93912 1.23999 4.08696 2.13074 2.8066 3.54657L1.42678 2.16674C1.26929 2.00925 1 2.12079 1 2.34352V5.98997C1 6.12804 1.11193 6.23997 1.25 6.23997H4.89645C5.11917 6.23997 5.23071 5.97068 5.07322 5.81319L3.86883 4.6088Z" fill="#5947B3"/>
</svg>
