<svg width="16" height="16" viewBox="0 0 16 16" fill="none" xmlns="http://www.w3.org/2000/svg">
<path fill-rule="evenodd" clip-rule="evenodd" d="M13.78 4.22007C13.9204 4.36069 13.9993 4.55132 13.9993 4.75007C13.9993 4.94882 13.9204 5.13944 13.78 5.28007L6.53 12.5301C6.38937 12.6705 6.19875 12.7494 6 12.7494C5.80125 12.7494 5.61062 12.6705 5.47 12.5301L2.22 9.28007C2.08752 9.13789 2.0154 8.94985 2.01882 8.75554C2.02225 8.56124 2.10096 8.37586 2.23838 8.23844C2.37579 8.10103 2.56118 8.02232 2.75548 8.01889C2.94978 8.01546 3.13782 8.08759 3.28 8.22007L6 10.9401L12.72 4.22007C12.8606 4.07962 13.0512 4.00073 13.25 4.00073C13.4487 4.00073 13.6394 4.07962 13.78 4.22007Z" fill="white"/>
</svg>
