<svg width="16" height="16" viewBox="0 0 16 16" fill="none" xmlns="http://www.w3.org/2000/svg">
<path fill-rule="evenodd" clip-rule="evenodd" d="M2.75 2.5C2.61193 2.5 2.5 2.61193 2.5 2.75V10.25C2.5 10.6642 2.16421 11 1.75 11C1.33579 11 1 10.6642 1 10.25V2.75C1 1.7835 1.7835 1 2.75 1H8.25C8.66421 1 9 1.33579 9 1.75C9 2.16421 8.66421 2.5 8.25 2.5H2.75Z" fill="#333333"/>
<path fill-rule="evenodd" clip-rule="evenodd" d="M5.75 16C4.7835 16 4 15.2165 4 14.25V5.75C4 4.7835 4.7835 4 5.75 4H12.25C13.2165 4 14 4.7835 14 5.75V14.25C14 15.2165 13.2165 16 12.25 16H5.75ZM5.5 14.25C5.5 14.3881 5.61193 14.5 5.75 14.5H12.25C12.3881 14.5 12.5 14.3881 12.5 14.25V5.75C12.5 5.61193 12.3881 5.5 12.25 5.5H5.75C5.61193 5.5 5.5 5.61193 5.5 5.75V14.25Z" fill="#333333"/>
</svg>
