<svg width="22" height="22" viewBox="0 0 22 22" fill="none" xmlns="http://www.w3.org/2000/svg">
<g clip-path="url(#clip0_710:1813)">
<path fill-rule="evenodd" clip-rule="evenodd" d="M11 22C7.66156 22 4.66909 20.5126 2.65242 18.1648C2.65242 18.1648 3.2793 17.7124 4.67204 17.7124C6.00269 17.7124 8.65215 18.3629 9.69892 18.3629C8.87688 18.4339 8.28548 18.5108 7.18548 18.5108C6.44624 18.5108 5.88737 18.4901 5.59758 18.6616C7.12634 19.7379 8.98925 20.3737 11 20.3737C16.1777 20.3737 20.3737 16.1777 20.3737 11C20.3737 10.7901 20.3677 10.5801 20.353 10.3702C19.9626 11.0384 19.3417 11.9078 18.8065 12.5081C19.8917 10.5387 20.8172 6.03226 20.8172 6.03226V6.03522C21.5742 7.52849 22 9.21398 22 11C22 17.0737 17.0737 22 11 22ZM10.6452 16.8548C8.24113 16.8548 6.66801 16.1747 4.70161 16.1747C1.9664 16.1747 0.931452 17.5202 0.798387 17.6532C0.798387 13.2503 4.19892 10.8078 7.45161 8.27957C9.63978 6.66801 10.0952 5.91398 10.379 5.52957C10.036 7.33925 9.48602 8.00753 9.19624 8.42742C11.6151 7.28011 13.7677 6.5586 15.7016 5.52957C17.4817 4.58333 19.3742 2.88011 19.664 2.57258C18.2801 15.4828 13.4691 16.8548 10.6452 16.8548ZM12.5968 9.04839C12.2478 9.20806 12.0054 9.55699 12.0054 9.96505C12.0054 10.521 12.4548 10.9704 13.0108 10.9704C13.3685 10.9704 13.682 10.7841 13.8594 10.5032C13.8831 10.654 13.8978 10.8108 13.8978 10.9704C13.8978 12.5702 12.5997 13.8683 11 13.8683C9.55108 13.8683 8.35054 12.8038 8.13468 11.414C6.53199 12.4194 6.07366 13.0108 5.52957 13.9866C6.50538 14.0309 8.69355 15.0806 10.9113 15.0806C14.5484 15.0806 16.2782 11.1478 17.5645 6.29839C16.4823 7.07903 14.7879 8.00457 12.5968 9.04839ZM12.6855 5.23387C13.475 4.71935 15.0038 3.74059 15.5715 2.81505C14.2202 2.05806 12.6589 1.62634 11 1.62634C6.0914 1.62634 2.06398 5.39946 1.65887 10.2075C2.57554 9.4121 3.88548 8.67285 5.35215 7.86559C1.60565 10.932 0.493817 12.9339 0.298656 13.3242L0.295699 13.336L0.266129 13.3952L0.263172 13.3981C0.0916666 12.6263 0 11.825 0 11C0 4.92634 4.92634 0 11 0C13.5016 0 15.8081 0.836828 17.6562 2.24435L17.6532 2.24731C17.6532 2.24731 16.1747 3.83226 12.6855 5.23387Z" fill="#5947B3"/>
</g>
<defs>
<clipPath id="clip0_710:1813">
<rect width="22" height="22" fill="white"/>
</clipPath>
</defs>
</svg>
