<svg width="16" height="16" viewBox="0 0 16 16" fill="none" xmlns="http://www.w3.org/2000/svg">
<path fill-rule="evenodd" clip-rule="evenodd" d="M11.0126 1.42687C11.696 0.743451 12.804 0.743453 13.4874 1.42687L14.5732 2.51266C15.2566 3.19607 15.2566 4.30411 14.5732 4.98753L5.96358 13.5972C5.75328 13.8075 5.49286 13.9607 5.2069 14.0424L1.95606 14.9712C1.69416 15.0461 1.41229 14.973 1.21969 14.7804C1.02709 14.5878 0.954049 14.306 1.02887 14.0441L1.95769 10.7932C2.03939 10.5073 2.19262 10.2468 2.40292 10.0365L11.0126 1.42687ZM12.4268 2.48753C12.3291 2.3899 12.1708 2.3899 12.0732 2.48753L10.8106 3.75009L12.25 5.18943L13.5126 3.92687C13.6102 3.82924 13.6102 3.67095 13.5126 3.57332L12.4268 2.48753ZM11.1893 6.25009L9.75002 4.81075L3.46358 11.0972C3.43354 11.1272 3.41165 11.1644 3.39997 11.2053L2.84203 13.1581L4.79482 12.6001C4.83567 12.5885 4.87287 12.5666 4.90292 12.5365L11.1893 6.25009Z" fill="#333333"/>
</svg>
