<svg width="32" height="32" viewBox="0 0 32 32" fill="none" xmlns="http://www.w3.org/2000/svg">
<path d="M16 0C7.16667 0 0 7.16667 0 16C0 24.8333 7.16667 32 16 32C24.8333 32 32 24.8333 32 16C32 7.16667 24.8333 0 16 0ZM20.7 9.17333C19.94 9.17333 19.1733 9.17333 18.4133 9.17333C17.9333 9.14 17.4333 9.50667 17.3467 9.99333C17.3333 10.8267 17.34 11.66 17.34 12.4933C18.46 12.5 19.5733 12.4933 20.6933 12.5C20.6133 13.7067 20.46 14.9067 20.2867 16.0933C19.3 16.1067 18.3133 16.0933 17.32 16.1C17.3067 19.6533 17.3267 23.2 17.3133 26.7533C15.8467 26.76 14.38 26.7467 12.9133 26.76C12.8867 23.2067 12.9133 19.6533 12.9 16.1C12.1867 16.0933 11.4667 16.1067 10.7533 16.0933C10.76 14.9 10.7533 13.7067 10.7533 12.5133C11.4667 12.5 12.1867 12.5133 12.9 12.5067C12.92 11.3467 12.88 10.1867 12.92 9.02667C13 8.1 13.3467 7.17333 14.0333 6.54C14.8667 5.74667 16.0467 5.48 17.16 5.44667C18.34 5.43333 19.52 5.44 20.7 5.44C20.7067 6.68 20.7067 7.92667 20.7 9.17333Z" fill="#3B5B97"/>
</svg>
