<svg width="16" height="16" viewBox="0 0 16 16" fill="none" xmlns="http://www.w3.org/2000/svg">
<path d="M7.31046 1.72561C7.90523 1.21341 8.72876 1.02134 9.50654 1C10.3301 1 11.1765 1 12 1C12 1.81098 12 2.64329 12 3.45427C11.4739 3.45427 10.9248 3.45427 10.3987 3.45427C10.0556 3.43293 9.71242 3.66768 9.64379 3.9878C9.64379 4.54268 9.64379 5.07622 9.64379 5.6311C10.4216 5.6311 11.2222 5.6311 12 5.6311C11.9314 6.42073 11.8399 7.21037 11.7026 8C11.0163 8 10.3072 8 9.62092 8C9.62092 10.3476 9.62092 12.6738 9.62092 15C8.5915 15 7.56209 15 6.5098 15C6.48693 12.6524 6.5098 10.3262 6.5098 7.97866C6.00654 7.97866 5.50327 7.97866 5 7.97866C5 7.18902 5 6.39939 5 5.6311C5.50327 5.6311 6.00654 5.6311 6.5098 5.6311C6.53268 4.86281 6.48693 4.09451 6.53268 3.34756C6.57843 2.75 6.83007 2.1311 7.31046 1.72561Z" fill="#333333"/>
</svg>
