<svg width="16" height="16" viewBox="0 0 16 16" fill="none" xmlns="http://www.w3.org/2000/svg">
<path d="M15.5621 7.80803C16.4206 6.96804 15.9455 5.50726 14.756 5.3347L10.9562 4.93021C10.9435 4.92784 10.9109 4.90415 10.8941 4.86981L9.28525 0.850545C9.02276 0.315869 8.55171 0.0247182 8.03143 0C7.44704 0.024687 6.97555 0.316119 6.73518 0.803859L5.08506 4.91581C5.08878 4.90374 5.05562 4.92781 5.01675 4.93349L1.2681 5.33152C0.0526907 5.50736 -0.4223 6.96986 0.43837 7.80956L3.19491 10.5302C3.22522 10.5598 3.238 10.5993 3.23131 10.6385L2.60417 14.2963C2.40067 15.4815 3.64515 16.3855 4.7096 15.8256L7.99534 14.0984C8.00194 14.0974 11.2895 15.8257 11.2895 15.8257C12.3543 16.3852 13.5978 15.4819 13.3955 14.2968L12.7674 10.6376C12.7609 10.5994 12.7736 10.5605 12.8017 10.5331L15.5621 7.80803ZM11.4532 10.8622L12.0813 14.5217C12.0977 14.6177 11.9967 14.6911 11.9098 14.6454L8.6247 12.9182C8.44293 12.8231 8.24846 12.773 8.04497 12.7592L7.9549 12.7591C7.75025 12.773 7.55523 12.8232 7.37432 12.9185L4.08901 14.6455C4.00264 14.6909 3.9018 14.6177 3.91827 14.5217L4.5456 10.863C4.62575 10.3919 4.47038 9.91273 4.12942 9.57915L1.37223 6.85792C1.29942 6.78689 1.33798 6.66814 1.43432 6.65418L5.18368 6.25603C5.68192 6.18369 6.08985 5.88738 6.3015 5.45917L7.95194 1.34653C7.95081 1.35328 7.98181 1.33413 8.03134 1.33179C8.01731 1.33413 8.04884 1.3536 8.06903 1.39438L9.67693 5.4118C9.90821 5.88679 10.3165 6.18362 10.7893 6.25275L14.5898 6.65736C14.6609 6.66818 14.6995 6.78689 14.6294 6.85527L11.868 9.5813C11.5289 9.91183 11.3731 10.3914 11.4532 10.8622Z" fill="#999999"/>
</svg>