<svg width="16" height="16" viewBox="0 0 16 16" fill="none" xmlns="http://www.w3.org/2000/svg">
<path fill-rule="evenodd" clip-rule="evenodd" d="M7.99906 0.25C8.13908 0.24991 8.27632 0.289014 8.39526 0.362887C8.5142 0.43676 8.61008 0.542452 8.67206 0.668L10.5541 4.483L14.7641 5.095C14.9026 5.11511 15.0327 5.17355 15.1396 5.26372C15.2466 5.35388 15.3263 5.47218 15.3695 5.60523C15.4128 5.73829 15.418 5.8808 15.3845 6.01665C15.3511 6.1525 15.2803 6.27628 15.1801 6.374L12.1341 9.344L12.8531 13.536C12.8768 13.6739 12.8615 13.8157 12.8088 13.9454C12.7561 14.0751 12.6682 14.1874 12.555 14.2697C12.4418 14.352 12.3078 14.401 12.1682 14.4111C12.0286 14.4212 11.889 14.3921 11.7651 14.327L7.99906 12.347L4.23306 14.327C4.10925 14.392 3.96973 14.4211 3.83025 14.411C3.69078 14.4009 3.5569 14.352 3.44374 14.2699C3.33059 14.1877 3.24265 14.0755 3.18988 13.946C3.1371 13.8165 3.12157 13.6749 3.14506 13.537L3.86506 9.343L0.817066 6.374C0.716632 6.27632 0.645565 6.15247 0.611918 6.01647C0.57827 5.88047 0.583388 5.73777 0.62669 5.60453C0.669993 5.47129 0.749749 5.35284 0.856922 5.26261C0.964094 5.17238 1.09439 5.11397 1.23306 5.094L5.44306 4.483L7.32606 0.668C7.38804 0.542452 7.48393 0.43676 7.60287 0.362887C7.72181 0.289014 7.85905 0.24991 7.99906 0.25Z" fill="#B3B3B3"/>
</svg>
