<svg width="22" height="21" viewBox="0 0 22 21" fill="none" xmlns="http://www.w3.org/2000/svg">
<g clip-path="url(#clip0_710:1821)">
<path d="M20.8733 7.03333L14.8655 6.15986L12.1802 0.730455C11.6991 -0.237324 10.3051 -0.249627 9.81984 0.730455L7.1346 6.15986L1.12675 7.03333C0.0493653 7.18915 -0.382411 8.5137 0.398898 9.27234L4.74544 13.4961L3.71741 19.4627C3.53236 20.5412 4.67142 21.3491 5.62544 20.8447L11 18.0275L16.3746 20.8447C17.3286 21.345 18.4677 20.5412 18.2826 19.4627L17.2546 13.4961L21.6012 9.27234C22.3825 8.5137 21.9507 7.18915 20.8733 7.03333V7.03333ZM15.1369 12.8072L16.1114 18.4827L11 15.8049L5.88862 18.4827L6.8632 12.8072L2.72638 8.78845L8.44227 7.9601L11 2.79314L13.5578 7.9601L19.2737 8.78845L15.1369 12.8072V12.8072Z" fill="#5947B3"/>
</g>
<defs>
<clipPath id="clip0_710:1821">
<rect width="22" height="21" fill="white"/>
</clipPath>
</defs>
</svg>
