<svg width="16" height="16" viewBox="0 0 16 16" fill="none" xmlns="http://www.w3.org/2000/svg">
<path fill-rule="evenodd" clip-rule="evenodd" d="M8.00089 0.25C8.14091 0.24991 8.27815 0.289014 8.39709 0.362887C8.51603 0.43676 8.61191 0.542452 8.67389 0.668L10.5559 4.483L14.7659 5.095C14.9044 5.11511 15.0345 5.17355 15.1414 5.26372C15.2484 5.35388 15.3281 5.47218 15.3713 5.60523C15.4146 5.73829 15.4198 5.8808 15.3863 6.01665C15.3529 6.1525 15.2821 6.27628 15.1819 6.374L12.1359 9.344L12.8549 13.536C12.8786 13.6739 12.8633 13.8157 12.8106 13.9454C12.7579 14.0751 12.67 14.1874 12.5568 14.2697C12.4436 14.352 12.3096 14.401 12.17 14.4111C12.0304 14.4212 11.8908 14.3921 11.7669 14.327L8.00089 12.347L4.2349 14.327C4.11109 14.392 3.97156 14.4211 3.83208 14.411C3.69261 14.4009 3.55873 14.352 3.44557 14.2699C3.33243 14.1877 3.24448 14.0755 3.19172 13.946C3.13894 13.8165 3.1234 13.6749 3.14689 13.537L3.86689 9.343L0.818897 6.374C0.718463 6.27632 0.647396 6.15247 0.613749 6.01647C0.580101 5.88047 0.585219 5.73777 0.628521 5.60453C0.671824 5.47129 0.75158 5.35284 0.858753 5.26261C0.965925 5.17238 1.09622 5.11397 1.23489 5.094L5.44489 4.483L7.3279 0.668C7.38987 0.542452 7.48576 0.43676 7.6047 0.362887C7.72364 0.289014 7.86088 0.24991 8.00089 0.25ZM8.00089 2.695L6.61589 5.5C6.56211 5.6089 6.48269 5.70311 6.38445 5.77453C6.2862 5.84595 6.17208 5.89244 6.0519 5.91L2.9549 6.36L5.19489 8.544C5.28204 8.62886 5.34725 8.73365 5.38488 8.84933C5.42251 8.96501 5.43144 9.0881 5.41089 9.208L4.88289 12.292L7.6519 10.836C7.75952 10.7794 7.8793 10.7499 8.00089 10.7499C8.12249 10.7499 8.24227 10.7794 8.3499 10.836L11.1199 12.292L10.5899 9.208C10.5694 9.0881 10.5783 8.96501 10.6159 8.84933C10.6536 8.73365 10.7188 8.62886 10.8059 8.544L13.0459 6.361L9.94989 5.911C9.82971 5.89344 9.7156 5.84695 9.61736 5.77553C9.5191 5.70411 9.43968 5.6099 9.38589 5.501L8.00089 2.694V2.695Z" fill="#B3B3B3"/>
</svg>
