<svg width="11" height="12" viewBox="0 0 11 12" fill="none" xmlns="http://www.w3.org/2000/svg">
<path d="M0.524902 11.2942C0.524902 11.5864 0.760102 11.8236 1.0499 11.8236C1.3397 11.8236 1.5749 11.5864 1.5749 11.2942H0.524902ZM1.5749 0.705925C1.5749 0.41369 1.3397 0.176514 1.0499 0.176514C0.760102 0.176514 0.524902 0.41369 0.524902 0.705925H1.5749ZM4.1999 1.41181L4.062 1.92287L4.1999 1.41181ZM6.2999 2.47063L6.4378 1.95957L6.2999 2.47063ZM9.4499 2.47063H9.9749C9.9749 2.31534 9.907 2.16781 9.7894 2.06687C9.6718 1.96593 9.5164 1.92287 9.3645 1.94828L9.4499 2.47063ZM9.4499 7.76475L9.5528 8.28428C9.7985 8.23487 9.9749 8.01745 9.9749 7.76475H9.4499ZM6.2999 7.76475L6.4686 7.26357L6.2999 7.76475ZM4.1999 6.35298L4.3686 5.85181L4.1999 6.35298ZM1.5749 11.2942V0.705925H0.524902V11.2942H1.5749ZM1.0499 1.41181L1.1353 1.93416H1.136L1.1395 1.93345L1.1542 1.93134L1.2137 1.92216L1.4412 1.8911C1.6358 1.8664 1.9074 1.83745 2.214 1.81769C2.844 1.77745 3.558 1.78381 4.0627 1.92216L4.3392 0.900749C3.6574 0.712984 2.7964 0.719337 2.1475 0.760984C1.815 0.782161 1.5217 0.813925 1.311 0.840749L1.0611 0.874631L0.991802 0.885219L0.972902 0.888043L0.967302 0.888749H0.965202L1.0506 1.4111L1.0499 1.41181ZM4.062 1.92287C4.4141 2.01957 4.6549 2.1784 4.9594 2.3824C5.2632 2.5864 5.6293 2.83557 6.162 2.98169L6.4385 1.96028C6.0864 1.86357 5.8456 1.70475 5.5411 1.50075C5.2373 1.29675 4.8712 1.04757 4.3385 0.901455L4.062 1.92287ZM6.162 2.98169C6.8438 3.16945 7.7048 3.1631 8.3537 3.12145C8.6862 3.10028 8.9795 3.06851 9.1902 3.04169L9.4401 3.00781L9.5094 2.99722L9.5283 2.9944L9.5339 2.99369H9.536L9.4506 2.47134L9.3652 1.94898H9.3645L9.361 1.94969L9.3463 1.95181L9.2868 1.96098L9.0593 1.99204C8.8647 2.01675 8.5931 2.04569 8.2865 2.06545C7.6565 2.10569 6.9425 2.09934 6.4378 1.96098L6.1613 2.9824L6.162 2.98169ZM8.9249 2.47063V7.76475H9.9749V2.47063H8.9249ZM9.4499 7.76475L9.3477 7.24522H9.347L9.3442 7.24593L9.3302 7.24875L9.2707 7.26004L9.0432 7.29745C8.8479 7.3271 8.577 7.3631 8.2718 7.3864C7.6404 7.43581 6.9439 7.42592 6.4693 7.26357L6.1319 8.26593C6.8221 8.5024 7.7006 8.49251 8.353 8.44169C8.6897 8.41557 8.9872 8.37675 9.2014 8.34357L9.4555 8.30192L9.5262 8.28922L9.5458 8.28569L9.5514 8.28428L9.5535 8.28357H9.5542L9.452 7.76404L9.4499 7.76475ZM6.4686 7.26357C6.1193 7.14428 5.9002 6.94593 5.6069 6.67134C5.3171 6.40028 4.9524 6.05228 4.3686 5.85251L4.0312 6.85487C4.3805 6.97416 4.5996 7.17251 4.8929 7.44781C5.1827 7.71887 5.5474 8.06687 6.1312 8.26734L6.4686 7.26498V7.26357ZM4.3686 5.85181C3.6784 5.61534 2.7999 5.62522 2.1475 5.67534C1.8108 5.70145 1.5133 5.74098 1.2998 5.77345L1.0457 5.8151L0.975002 5.82781L0.955402 5.83134L0.949802 5.83275H0.947702L1.0499 6.35228L1.1521 6.87181H1.1528L1.1556 6.8711L1.1696 6.86828L1.2291 6.85769L1.4566 6.82028C1.6519 6.79063 1.9228 6.75463 2.228 6.73134C2.8594 6.68193 3.5559 6.69181 4.0305 6.85416L4.3679 5.85181H4.3686Z" fill="#EF2A2A"/>
</svg>
