<svg width="32" height="32" viewBox="0 0 32 32" fill="none" xmlns="http://www.w3.org/2000/svg">
<path fill-rule="evenodd" clip-rule="evenodd" d="M16 32C7.16667 32 0 24.8333 0 16C0 7.16667 7.16667 0 16 0C24.8333 0 32 7.16667 32 16C32 24.8333 24.8333 32 16 32ZM25.88 11.76C25.88 8.61333 23.32 6.05333 20.1733 6.05333H11.7533C8.60667 6.05333 6.04667 8.61333 6.04667 11.76V20.2533C6.04667 23.4 8.60667 25.96 11.7533 25.96H20.1733C23.32 25.96 25.88 23.4 25.88 20.2533V11.76ZM20.1667 24.0733H11.7533C9.64667 24.0733 7.93333 22.36 7.93333 20.2533V11.76C7.93333 9.65333 9.64667 7.94 11.7533 7.94H20.1733C22.28 7.94 23.9933 9.65333 23.9933 11.76V20.2533C23.9867 22.36 22.2733 24.0733 20.1667 24.0733ZM15.9733 10.8467C13.12 10.8467 10.7933 13.1467 10.7933 15.9667C10.7933 18.7933 13.1133 21.0867 15.9733 21.0867C18.8267 21.0867 21.1533 18.7867 21.1533 15.9667C21.1533 13.1467 18.8333 10.8467 15.9733 10.8467ZM21.2467 9.42C20.5733 9.42 20.0267 9.96667 20.0267 10.64C20.0267 11.3133 20.5733 11.86 21.2467 11.86C21.92 11.86 22.4667 11.3133 22.4667 10.64C22.4667 9.96667 21.92 9.42 21.2467 9.42ZM15.9733 19.2067C14.16 19.2067 12.68 17.7533 12.68 15.9667C12.68 14.18 14.1533 12.7267 15.9733 12.7267C17.7867 12.7267 19.2667 14.18 19.2667 15.9667C19.2667 17.7533 17.7933 19.2067 15.9733 19.2067Z" fill="url(#paint0_linear)"/>
<defs>
<linearGradient id="paint0_linear" x1="32" y1="0" x2="0" y2="32" gradientUnits="userSpaceOnUse">
<stop stop-color="#D800B9"/>
<stop offset="0.5" stop-color="#FF0100"/>
<stop offset="1" stop-color="#FFD600"/>
</linearGradient>
</defs>
</svg>
