<svg width="72" height="32" viewBox="0 0 72 32" fill="none" xmlns="http://www.w3.org/2000/svg">
<path fill-rule="evenodd" clip-rule="evenodd" d="M69.7822 31.9743C69.1891 31.9743 68.6733 31.7944 68.2607 31.4602C67.8223 31.1004 67.1003 30.1494 66.043 28.5815L66.0172 28.5558L64.9857 26.9622L64.0831 26.988H63.2579V30.8948C63.2579 31.2032 63.3095 31.4345 63.3868 31.5631C63.4642 31.6916 63.6705 31.7687 63.9799 31.7687V31.8715H61.3496V31.7687C61.6848 31.743 61.8911 31.6916 61.9685 31.5631C62.0458 31.4345 62.0974 31.1775 62.0974 30.792V22.6699C62.0974 22.4128 62.0716 22.1815 61.9943 22.0016C61.9169 21.8217 61.7106 21.7446 61.3496 21.7446V21.6418H64.2636C65.0115 21.6418 65.5272 21.6675 65.8625 21.6932C66.1977 21.7189 66.5329 21.8217 66.8682 22.0273C67.2034 22.2072 67.4613 22.4643 67.6418 22.7727C67.8223 23.0811 67.8997 23.4667 67.8997 23.9293C67.8997 24.4434 67.745 24.9317 67.4355 25.4201C67.1261 25.8827 66.6877 26.294 66.1203 26.6024L66.8424 27.7076C66.9971 27.9904 67.4097 28.5815 68.106 29.5325C68.7765 30.4835 69.3181 31.049 69.6791 31.2546C70.0401 31.4602 70.4011 31.5631 70.7622 31.5631C71.0974 31.5631 71.51 31.4345 71.9484 31.1775L72 31.306C71.3811 31.743 70.659 31.9743 69.7822 31.9743ZM66.1977 26.1141C66.6103 25.7028 66.8166 25.1888 66.8166 24.5462C66.8166 23.9036 66.6103 23.3124 66.2235 22.747C65.8109 22.1815 65.1146 21.8988 64.1089 21.8988H63.2579V26.7052H64.341C65.1662 26.7052 65.7851 26.4996 66.1977 26.1141ZM69.3954 8.09639C69.4728 8.27631 69.5759 8.45622 69.6533 8.63614C69.3954 8.53333 69.1375 8.43052 68.8797 8.32771C68.957 8.48193 69.0344 8.66185 69.086 8.81606C69.1375 8.99598 69.1633 9.1759 69.2149 9.35582C69.0086 9.1245 68.7249 8.94458 68.3897 8.81606C68.4928 8.97028 68.596 9.1502 68.6991 9.30442C68.8539 9.56145 68.8281 9.89558 68.9054 10.204C68.7249 9.97269 68.5444 9.74136 68.2865 9.58715C68.3639 10.0241 68.3639 10.4353 68.3381 10.8723C67.6418 9.51004 67.5903 9.48434 67.4871 9.61285C67.0229 10.5639 67.2808 10.5639 66.894 9.71566C66.894 9.89558 66.6103 10.204 66.5072 10.3068C66.3524 10.4353 66.0946 10.5124 65.9398 10.6153L66.1203 10.1526C66.2493 9.84418 66.2751 9.56145 66.2235 9.35582L65.6819 9.76707C65.3983 9.97269 65.192 10.2554 65.0888 10.3839L64.7278 10.898C64.702 10.9494 64.6504 11.0265 64.6246 11.0779L64.9599 11.4635C65.1662 11.7205 65.3725 12.0803 65.3983 12.4145C65.4241 12.6715 65.3983 13.1084 65.3209 13.3655C65.2693 13.494 65.2436 13.494 65.192 13.5968C65.1662 13.6225 65.0888 14.0851 65.0888 14.188C65.0115 14.5478 64.702 14.7534 64.3668 14.5735C64.3152 14.5478 64.2894 14.5478 64.2894 14.4707C64.341 14.4707 64.4957 14.5478 64.4957 14.445L64.4699 14.3679C64.4183 14.2394 64.4183 14.1365 64.3925 14.008C64.3668 13.9566 64.3152 13.8281 64.2636 13.751L64.1089 13.5197L64.0831 13.6739C64.0315 13.7767 64.1089 14.008 64.0573 14.1365C64.0057 14.1108 63.9542 14.008 63.9026 13.9566C63.851 13.8795 63.851 13.8024 63.851 13.6996C63.851 13.4683 63.7478 13.3912 63.6705 13.2369C63.49 13.2369 62.7937 13.3912 62.5616 13.4426C62.4842 13.4683 62.51 13.4683 62.4842 13.5454C62.4069 13.9052 62.2006 14.2651 61.9427 14.4964C61.9427 14.4707 61.9427 14.445 61.9427 14.4193L61.9169 14.3679C61.8138 14.445 61.8911 14.5221 61.9685 14.5992C62.0458 14.7277 62.149 14.8048 62.2521 14.8819C62.3553 14.959 62.2521 14.9076 62.3037 14.9847C62.3295 15.0104 62.4584 15.139 62.4842 15.1647C62.4584 15.1904 62.4585 15.1904 62.4327 15.2161C62.4585 15.2418 62.5616 15.3446 62.5616 15.396L62.4584 15.3703C62.4842 15.4731 62.5616 15.5245 62.5358 15.6016L62.4584 15.6273C62.4584 15.7044 62.51 15.7815 62.5358 15.8586C62.5616 15.9357 62.6132 15.9871 62.639 16.0643C62.5616 16.0386 62.6132 16.0386 62.5616 16.0386C62.5874 16.09 62.7163 16.2699 62.7679 16.2956C62.8711 16.3984 62.9484 16.4241 63.0516 16.4755C63.2063 16.5526 63.1289 16.6554 63.361 16.604C63.5673 16.5526 63.5158 16.3984 63.6705 16.5269C63.7478 16.5012 63.7736 16.4755 63.851 16.4498C63.9542 16.4498 63.9542 16.5012 64.0057 16.5526C64.0315 16.5269 64.0573 16.5269 64.1089 16.5269C64.1862 16.5269 64.1605 16.5526 64.212 16.5526C64.2378 16.5526 64.3152 16.5012 64.4183 16.5012C64.5473 16.5012 64.7278 16.5783 64.7278 16.7325C64.5989 16.7068 64.5473 16.5783 64.3925 16.6811C64.4183 16.7325 64.5989 16.8867 64.212 16.9639C64.0831 16.9896 64.2378 17.0153 63.9542 16.9896C63.7221 17.2466 63.6963 17.041 63.5158 17.0924C63.4384 17.1181 63.4384 17.0667 63.361 17.041C63.2579 17.0924 63.2837 17.1181 63.1289 17.0667C62.9742 17.041 62.9742 17.1952 62.7937 17.2723C62.7421 17.298 62.6905 17.3494 62.6648 17.4008C62.6132 17.4779 62.6132 17.5036 62.5616 17.5807C62.5358 17.6321 62.4585 17.6835 62.4069 17.7092C62.2006 17.7863 62.1748 17.5293 62.1232 17.4522C61.9427 17.4265 61.8653 17.6578 61.9169 17.8378C61.9169 17.8892 62.0201 17.992 62.0458 18.0177C62.0974 18.0691 62.1748 18.0691 62.2779 18.0691C62.4327 18.0691 62.4069 18.0691 62.51 17.992C62.639 17.8892 62.6648 17.992 62.7163 18.0177C62.8195 18.0434 63.0258 17.8635 63.1289 18.0948C63.1805 18.0948 63.1805 18.0691 63.2579 18.0691C63.3352 18.0691 63.3352 18.0948 63.361 18.1205C63.3868 18.1205 63.5158 18.0691 63.6189 18.0948C63.7736 18.1205 63.9542 18.249 63.9542 18.3775C63.7736 18.3518 63.8252 18.2233 63.5415 18.249C63.5415 18.3261 63.6447 18.3518 63.5931 18.4289C63.5673 18.4803 63.49 18.506 63.4384 18.506C63.361 18.5317 63.2837 18.506 63.2063 18.5317C63.0774 18.5574 63.0774 18.5317 62.9742 18.5317C62.8711 18.5317 62.8195 18.6859 62.5874 18.6088C62.4842 18.5831 62.5358 18.5574 62.4069 18.5574C62.3037 18.5574 62.3037 18.506 62.2521 18.4803C62.149 18.506 62.0974 18.5574 61.9685 18.4803C61.8911 18.4289 61.8137 18.4803 61.7364 18.5317C61.5301 18.6859 61.5043 18.6345 61.4011 18.6859C61.3754 18.7116 61.3238 18.7116 61.298 18.7373C61.2722 18.7631 61.2464 18.7888 61.2206 18.8402C61.1948 18.8659 61.1691 18.8916 61.1175 18.9173C60.9112 19.1229 60.5759 19.1486 60.5759 18.7373C60.4212 18.7116 60.3438 18.7631 60.2665 18.8659C60.1891 19.0201 60.2149 19.0458 60.1891 19.2257C60.086 19.1743 60.086 19.0715 60.086 18.943C60.086 18.5317 60.3954 18.5317 60.5501 18.4546C60.6017 18.4289 60.6017 18.4032 60.6533 18.4032C60.808 18.3518 61.1433 18.3518 61.0659 18.0948C61.0401 17.992 60.8338 17.7092 60.7307 17.7092C60.6791 17.7349 60.6275 17.8892 60.6017 17.8892V17.812H60.4986L60.447 17.6321C60.3954 17.6578 60.4212 17.6835 60.3696 17.7092C60.318 17.6321 59.8023 16.7582 59.7249 16.7068C59.6991 16.604 59.6476 16.5012 59.6218 16.3984C59.4413 16.7582 59.3123 17.1438 59.0544 17.4522C58.7192 17.8635 58.5129 18.0177 57.4814 18.1205C57.7908 17.9406 58.1261 17.7349 58.2808 17.3751C58.0487 17.5036 57.7393 17.555 57.4556 17.6064C57.7908 17.4008 58.0745 17.1438 58.2292 16.7839C58.0229 16.9382 57.7908 17.041 57.5329 17.0924C57.765 16.8353 57.9456 16.5526 58.0487 16.2185C57.8166 16.4755 57.5072 16.6811 57.1461 16.861C57.3266 16.5783 57.5587 16.3984 57.7135 16.09C57.8166 15.91 57.9971 15.9871 57.9713 15.8072C57.9713 15.7815 57.9713 15.7558 57.9713 15.7301C57.894 15.7558 57.7135 15.8586 57.6361 15.7815C57.5845 15.7044 57.7135 15.6273 57.7393 15.5502C57.6103 15.4988 57.6619 15.5759 57.5329 15.4988C57.4556 15.4731 57.5845 15.2675 57.5845 15.1904C57.4556 15.3703 57.3009 15.4474 57.1461 15.4988C57.2751 15.2932 57.3524 15.0875 57.3524 14.8562C57.1461 15.1133 56.8882 15.2932 56.6046 15.4474C56.8109 15.0104 56.9656 14.5478 56.9914 14.0851C56.7851 14.2394 56.5272 14.3165 56.2435 14.3679C56.4499 14.2137 56.6304 14.0337 56.7077 13.8281C56.4241 13.9309 56.1146 13.9823 55.8052 13.9823C56.063 13.8024 56.2951 13.5968 56.4499 13.3655C56.1404 13.4683 55.8309 13.494 55.4957 13.4169C55.7536 13.2884 55.9857 13.1341 56.1662 12.9285C55.9857 12.9542 55.8052 12.9542 55.6246 12.9799C55.5473 12.9799 54.1289 13.1598 53.5358 12.6458C54.2579 12.6458 54.9542 12.5944 55.6246 12.4659C55.8825 12.4145 56.2178 12.3373 56.4756 12.2859C56.914 12.1574 57.6619 11.6948 57.9456 11.5149C57.1203 11.6691 55.5731 11.6691 54.7994 11.5149C55.0057 11.3863 55.1347 11.2321 55.1605 11.0265C54.9026 11.0779 54.6189 11.1293 54.3352 11.1807C54.5415 10.8466 54.6447 10.5124 54.6705 10.1526C54.3352 10.461 53.8453 10.6667 53.3037 10.8466C53.6648 10.3325 53.9226 9.81847 54.0516 9.25301C53.6905 9.63855 53.2521 9.97269 52.6332 10.1783C52.8653 9.81847 53.0458 9.43293 53.0974 9.02169C52.8653 9.20161 52.5817 9.30442 52.298 9.40723C52.5301 9.07309 52.7364 8.73896 52.8653 8.40482C52.6332 8.50763 52.4011 8.55904 52.1433 8.55904C52.3754 8.35341 52.5817 8.14779 52.7364 7.94217C52.4785 8.01928 52.2206 8.01928 51.937 7.96787C52.169 7.81365 52.4011 7.63373 52.5817 7.42811C52.3238 7.47952 52.0401 7.47952 51.7822 7.45381C51.9112 7.3253 52.0917 7.19679 52.2206 7.04257C52.3496 6.88835 52.4527 6.73414 52.5817 6.57992C52.2464 6.68273 51.9112 6.70843 51.6017 6.68273C51.7822 6.55422 51.937 6.4 52.0401 6.19438C51.7822 6.24578 51.5244 6.29719 51.2665 6.29719C50.957 6.29719 50.6734 6.27149 50.3639 6.24578C50.5186 6.09157 50.6733 5.96305 50.8539 5.80884C50.8281 5.80884 50.8281 5.80884 50.8023 5.80884C50.6734 5.80884 50.5444 5.83454 50.4413 5.86024C50.2865 5.88594 50.1576 5.86024 50.0287 5.83454C49.8997 5.80884 49.7708 5.75743 49.6934 5.70602C49.5645 5.62892 49.5129 5.60321 49.4871 5.4747V5.449C49.3582 5.449 49.255 5.42329 49.1776 5.32048C49.0487 5.29478 48.9198 5.42329 48.7393 5.37189C48.7135 5.37189 48.6619 5.34618 48.6361 5.34618C48.3266 5.37189 48.2235 5.4747 47.6819 5.42329C47.1662 5.37189 46.9341 5.32048 46.5473 5.21767C46.9341 5.11486 47.3209 5.01205 47.7077 4.90924C47.9914 4.85783 48.404 4.72932 48.5587 4.70361C48.6619 4.67791 48.765 4.70361 48.765 4.5494C48.3524 4.5751 47.9398 4.5751 47.553 4.6008C47.553 4.5751 47.5272 4.5494 47.5272 4.52369C47.4756 4.5494 47.4499 4.6008 47.3983 4.62651C47.2951 4.65221 46.9341 4.62651 46.8052 4.6008C46.6762 4.6008 46.1347 4.6008 46.0573 4.5751C46.0573 4.5494 46.0573 4.49799 46.0573 4.47229C45.851 4.62651 45.9284 4.6008 45.6189 4.5494C45.5415 4.5494 45.4384 4.52369 45.361 4.49799C45.2837 4.47229 45.1805 4.49799 45.1031 4.44659C45.1289 4.36948 45.1805 4.34378 45.1805 4.26667C45.1289 4.29237 45.0516 4.36948 44.9742 4.42088C44.8711 4.49799 44.8453 4.49799 44.6905 4.47229C44.5874 4.47229 44.149 4.44659 44.0974 4.36948C44.0974 4.31807 44.0974 4.34377 44.149 4.31807C44.2264 4.26667 44.3295 4.26667 44.4327 4.24096C45 4.11245 45.9542 4.00964 46.5215 3.98394C46.7536 3.98394 47.192 3.95823 47.4241 3.93253C47.8625 3.88112 48.3266 3.88112 48.7393 3.85542C48.9198 3.85542 49.0229 3.88112 49.0229 3.77831C49.0487 3.6498 48.9198 3.72691 48.765 3.7012C48.7135 3.7012 48.6361 3.6755 48.5587 3.6755C48.1461 3.6498 47.7077 3.57269 47.2951 3.57269C47.2951 3.49558 47.3467 3.49558 47.3725 3.41847C47.2178 3.49558 47.192 3.59839 46.9857 3.59839C46.8309 3.57269 46.6504 3.57269 46.4957 3.54699C46.341 3.52129 46.1605 3.49558 46.0057 3.49558C45.8768 3.46988 45.6189 3.46988 45.5158 3.44418C45.5931 3.39277 45.7736 3.26426 45.851 3.23855C45.8252 3.21285 45.7736 3.26426 45.7221 3.26426C45.2321 3.46988 45.361 3.44418 44.7679 3.39277C44.6132 3.39277 43.6848 3.31566 43.6332 3.21285C43.659 3.13574 43.8138 3.11004 43.8911 3.08434C44.6648 2.90442 45.49 2.93012 46.2894 2.98153C46.7536 3.00723 47.2178 3.03293 47.6562 3.05863C47.914 3.08434 48.8682 3.16145 49.0229 3.13574C49.0487 3.08434 49.0745 3.00723 48.9971 3.00723C48.9713 3.00723 48.8682 2.98153 48.8166 2.98153C48.0172 2.90442 47.2951 2.7759 46.5215 2.64739C46.0831 2.57028 45.6447 2.51888 45.2063 2.44177C44.9742 2.41606 44.0458 2.33896 43.9169 2.23614C43.9427 2.18474 43.9943 2.13333 44.0201 2.10763C43.9943 2.08193 43.8653 2.15904 43.8137 2.21044C43.7364 2.26185 43.659 2.21044 43.5559 2.21044C43.5559 2.13333 43.6074 2.10763 43.6074 2.05622C43.5817 2.05622 43.4527 2.13333 43.4011 2.15904C43.3238 2.18474 42.8338 2.05622 42.7307 2.00482C42.7049 1.97912 42.7049 2.00482 42.7049 1.95341L43.4527 1.87631C44.5874 1.7992 45.9542 2.08193 47.063 2.23614C47.2951 2.26185 47.5272 2.31325 47.7335 2.33896C47.7593 2.33896 48.404 2.46747 48.4298 2.44177C48.5072 2.36466 48.2751 2.33896 48.2493 2.33896L47.4499 2.15904C47.0888 2.05622 46.7278 2.00482 46.3668 1.95341C46.0057 1.87631 45.6189 1.8249 45.2579 1.74779C44.9484 1.69639 44.639 1.59357 44.3295 1.51647C44.3037 1.51647 44.2779 1.51647 44.2779 1.49076C44.2264 1.46506 44.2521 1.49076 44.2264 1.46506C44.2521 1.41365 44.2264 1.46506 44.2521 1.41365C44.2779 1.38795 44.2521 1.41365 44.2779 1.36225C44.149 1.46506 44.149 1.46506 43.9685 1.41365C43.8653 1.38795 43.7364 1.36225 43.6332 1.31084C43.5043 1.28514 43.4011 1.23373 43.298 1.20803C43.2206 1.18233 43.0401 1.13092 42.9885 1.07952C43.1175 0.976707 44.2779 1.05382 44.4327 1.07952C44.8711 1.15663 45.2837 1.23373 45.6963 1.33655L48.6103 1.97912C48.8166 2.03052 49.7192 2.23614 49.8481 2.23614C49.5129 2.13333 49.1261 2.03052 48.765 1.90201L46.6246 1.20803C46.4441 1.13092 45.6963 0.899598 45.5931 0.848193C45.5931 0.796787 45.6189 0.771084 45.6447 0.719679C45.4642 0.82249 45.3868 0.745381 45.2063 0.668273C45.0258 0.591165 44.1232 0.17992 44.0974 0C44.2264 0.0257028 44.4069 0.0771084 44.51 0.102811C44.9226 0.205622 45.3352 0.359839 45.7221 0.462651C46.2636 0.616867 46.7536 0.848193 47.2693 1.00241L48.8166 1.54217C49.2034 1.67068 49.5903 1.7992 50.0029 1.95341C50.467 2.13333 51.6017 2.39036 52.0917 2.46747C52.3754 2.51888 52.6848 2.59598 52.9685 2.62169C53.0201 2.62169 53.0716 2.62169 53.1232 2.64739L56.5788 3.39277C57.043 3.46988 57.5072 3.54699 57.9713 3.6241C57.5587 3.34137 56.8625 2.98153 56.2178 2.6988C56.063 2.64739 55.8567 2.54458 55.7278 2.46747C56.0372 2.46747 56.3725 2.46747 56.6562 2.49317C56.9656 2.51888 57.2751 2.54458 57.5587 2.64739C57.894 2.7502 58.2034 2.90442 58.5129 3.05863C58.6418 3.11004 58.7966 3.16145 58.9255 3.23855C59.1576 3.34137 59.4155 3.46988 59.6218 3.57269C59.7765 3.6755 60.5243 4.11245 60.6791 4.11245C60.7307 4.18956 61.2206 4.29237 61.3238 4.34377C61.4269 4.39518 61.4269 4.44659 61.5043 4.47229C61.5301 4.52369 61.5817 4.6008 61.6074 4.65221C61.7106 4.88353 61.8137 5.08916 61.7106 5.37189C61.5043 5.96305 60.3438 6.4 60.4986 7.68514C60.6017 8.45622 60.8338 8.91887 61.2722 9.27871C61.5043 9.48434 61.8138 9.51004 62.1748 9.56145C62.3295 9.58715 62.51 9.63855 62.6648 9.66426C62.8195 9.71566 62.7679 9.68996 63 9.48434C63.4384 9.09879 63.8252 8.76466 64.3152 8.40482C64.702 8.12209 64.9599 7.91647 65.3209 7.60803C65.4241 7.53092 65.5272 7.42811 65.6562 7.351C65.8883 7.19679 66.1461 7.04257 66.4298 6.91406C66.6877 6.78554 66.9713 6.65703 67.255 6.55422C67.5645 6.45141 68.3897 6.16867 68.6991 6.27149C68.8281 6.32289 68.9828 6.4257 68.9828 6.55422C68.9312 6.60562 68.7765 6.60562 68.7507 6.68273C68.9054 6.68273 69.447 6.75984 69.1891 6.96546C69.1375 6.99116 69.086 6.99116 69.0602 7.01687C69.0602 7.04257 69.086 7.04257 69.086 7.04257L69.2407 7.09398L69.7307 7.55663L69.8854 7.83936L69.0086 7.60803L69.3954 8.09639ZM61.7106 16.347C61.6848 16.3213 61.659 16.2956 61.6332 16.2699C61.5817 16.3213 61.5301 16.6811 61.5043 16.7839C61.3238 17.2209 61.4269 16.9896 61.5043 17.2723C61.4527 17.2723 61.4527 17.2466 61.4011 17.2209C61.4011 17.298 61.5043 17.4522 61.5559 17.5036C61.6074 17.5807 61.7106 17.6835 61.8138 17.7092C61.788 17.4779 61.6848 17.2723 62.0201 17.0924C62.1232 17.041 62.0458 17.041 62.2006 16.9639C62.3553 16.9124 62.5358 16.8353 62.4069 16.6297C62.3553 16.5526 62.1748 16.347 62.0974 16.347C62.0716 16.3727 62.0458 16.4498 62.0458 16.5012C62.0201 16.5012 62.0201 16.4755 62.0201 16.4755C61.9943 16.4498 62.0201 16.4498 61.9427 16.4498C61.9169 16.4498 61.8653 16.3213 61.8395 16.2956C61.788 16.3213 61.8395 16.347 61.788 16.3727C61.7622 16.4241 61.7364 16.3984 61.7106 16.347ZM44.4584 8.45623H44.3553C44.2264 7.94217 44.0974 7.63373 43.9943 7.53092C43.8911 7.42811 43.659 7.40241 43.298 7.40241H39.9198V12.0032H43.0659C43.3754 12.0032 43.5817 11.9775 43.659 11.9261C43.7364 11.8747 43.788 11.7719 43.788 11.6691H43.8911V12.6458H43.788C43.7622 12.5173 43.7106 12.4145 43.6332 12.3631C43.5559 12.3116 43.4011 12.2859 43.169 12.2859H39.9456V15.4474C39.9456 15.9357 39.9971 16.2699 40.0745 16.4755C40.1519 16.6811 40.3066 16.8096 40.4871 16.861C40.6676 16.9124 40.9771 16.9382 41.3639 16.9382H43.169C43.7364 16.9382 44.0974 16.9124 44.2779 16.8867C44.4327 16.8353 44.5616 16.7582 44.6905 16.6554C44.7937 16.5269 44.8968 16.2699 44.9484 15.8843H45.0516V17.298H38.063V17.1952C38.2951 17.1695 38.4756 17.1438 38.6046 17.0667C38.7335 16.9896 38.7851 16.7839 38.7851 16.4755V8.1992C38.7851 7.81365 38.7593 7.55663 38.6819 7.40241C38.6046 7.24819 38.3983 7.17108 38.063 7.17108V7.04257H44.4842V8.45623H44.4584ZM35.149 17.1952C35.4585 17.1952 35.6132 17.0667 35.6132 16.7582C35.6132 16.6811 35.5874 16.5526 35.5616 16.347L34.5043 8.81606L30.8424 17.298H30.765L27.0774 8.81606L26.0458 16.3727C26.0201 16.4755 26.0201 16.6297 26.0201 16.7582C26.0201 17.0153 26.1748 17.1695 26.4842 17.1695V17.2723H24.9112V17.1695C25.1433 17.1695 25.298 17.1438 25.3754 17.0924C25.4527 17.041 25.5043 16.9382 25.5301 16.8096C25.5559 16.6811 25.6075 16.5526 25.6075 16.3727L26.7679 8.09639C26.5874 7.63373 26.3811 7.351 26.2006 7.2739C26.0201 7.17108 25.8395 7.14538 25.659 7.14538V7.04257H27.5931L31.2034 15.4217L34.8138 7.04257H36.4384V7.14538C35.8968 7.17108 35.6132 7.45381 35.6132 7.99357C35.6132 8.12209 35.639 8.27631 35.6648 8.48193L36.7478 16.2442C36.8252 16.6297 36.8768 16.8867 36.9542 16.9896C37.0315 17.0924 37.212 17.1695 37.4699 17.1952V17.298H35.1748V17.1952H35.149ZM18.6189 17.4522C17.2006 17.4522 16.0401 16.9896 15.1375 16.0643C14.235 15.139 13.7708 14.0337 13.7708 12.7229C13.7708 11.849 13.9771 10.9494 14.4155 10.0241C14.8539 9.09879 15.4986 8.35341 16.3754 7.76225C17.2521 7.17108 18.2837 6.88835 19.4957 6.88835C20.9398 6.88835 22.1003 7.3253 23.0287 8.1992C23.9312 9.07309 24.3954 10.1526 24.3954 11.4635C24.3954 13.1341 23.8797 14.5735 22.8223 15.7044C21.765 16.861 20.3725 17.4522 18.6189 17.4522ZM23.7765 12.7229C23.7765 11.7205 23.5186 10.8209 22.9771 10.0241C22.4355 9.20161 21.765 8.58474 20.914 8.12209C20.063 7.65944 19.2894 7.42811 18.5673 7.42811C17.5616 7.42811 16.6332 7.81365 15.808 8.58474C14.9828 9.35582 14.5702 10.3068 14.5702 11.4377C14.5702 12.8771 15.086 14.1622 16.0917 15.2675C17.0974 16.3727 18.2321 16.9125 19.4957 16.9125C20.192 16.9125 20.8883 16.7325 21.5845 16.347C22.2808 15.9614 22.8223 15.4474 23.2092 14.7791C23.5702 14.1108 23.7765 13.4426 23.7765 12.7229ZM11.8109 18.5831C11.6819 18.7116 11.6046 18.9687 11.6046 19.3542V24.7004H19.1089V19.8169C19.1089 19.2514 19.0573 18.8916 18.9542 18.6859C18.851 18.4803 18.5931 18.3775 18.1547 18.3775V18.249H21.6361V18.3775C21.3524 18.3775 21.1461 18.4032 21.0172 18.4803C20.8883 18.5574 20.7851 18.6345 20.7335 18.7888C20.6819 18.9173 20.6562 19.2771 20.6562 19.8169V30.3036C20.6562 30.8434 20.6819 31.1775 20.7335 31.306C20.7851 31.4345 20.8625 31.5373 20.9914 31.6402C21.1203 31.7173 21.3266 31.7687 21.6361 31.7687V31.8972H18.1547V31.743C18.5415 31.743 18.7736 31.6659 18.9026 31.5116C19.0315 31.3574 19.0831 30.9462 19.0831 30.2522V25.0602H11.6046V30.3036C11.6046 30.792 11.6304 31.1004 11.6819 31.2546C11.7335 31.3831 11.8109 31.5116 11.9398 31.5888C12.0688 31.6916 12.2751 31.7173 12.6103 31.7173V31.8458H9.07736V31.743C9.72206 31.7944 10.0315 31.4859 10.0315 30.8177V19.8169C10.0315 19.2 9.97994 18.7888 9.87679 18.6345C9.77364 18.4803 9.51576 18.3775 9.07736 18.3518V18.2233H12.6103V18.3518C12.1977 18.3775 11.9398 18.4546 11.8109 18.5831ZM9.07736 17.1438C9.46418 17.1438 9.69627 17.0667 9.82521 16.9125C9.95415 16.7582 10.0057 16.347 10.0057 15.653V10.4867H2.52722V15.7301C2.52722 16.2185 2.55301 16.5269 2.60458 16.6811C2.65616 16.8096 2.73352 16.9382 2.86246 17.0153C2.9914 17.1181 3.19771 17.1438 3.53295 17.1438V17.2723H0V17.1438C0.644699 17.1952 0.954155 16.8867 0.954155 16.2185V5.24337C0.954155 4.62651 0.902579 4.21526 0.799427 4.06104C0.696275 3.90683 0.438395 3.80402 0 3.77831V3.6498H3.53295V3.77831C3.14613 3.80402 2.88825 3.88112 2.73352 4.00964C2.60458 4.13815 2.52722 4.39518 2.52722 4.78072V10.1269H10.0315V5.24337C10.0315 4.67791 9.97994 4.31807 9.87679 4.11245C9.77364 3.90683 9.51576 3.80402 9.07736 3.80402V3.6755H12.5587V3.80402C12.2751 3.80402 12.0688 3.82972 11.9398 3.90683C11.8109 3.98394 11.7077 4.06104 11.6562 4.21526C11.6046 4.34377 11.5788 4.70361 11.5788 5.24337V15.7301C11.5788 16.2699 11.6046 16.604 11.6562 16.7325C11.7077 16.861 11.7851 16.9639 11.914 17.0667C12.043 17.1438 12.2493 17.1952 12.5587 17.1952V17.3237H9.07736V17.1438ZM25.6848 21.7446C25.4011 21.7446 25.1948 21.796 25.0659 21.8731C24.937 21.9759 24.8854 22.1815 24.8854 22.5157V28.1446C24.8854 29.3269 25.1691 30.1494 25.7106 30.6635C26.2521 31.1775 26.8968 31.4088 27.5931 31.4088C28.702 31.4088 29.6819 30.9205 30.5329 29.9181V22.9783C30.5329 22.3614 30.4814 22.0016 30.3782 21.8988C30.2751 21.796 30.0946 21.7189 29.8883 21.7189H29.7851V21.6161H32.4928V21.7189C32.1576 21.7446 31.9513 21.796 31.8739 21.8731C31.7966 21.9759 31.745 22.1301 31.745 22.4128V30.7406C31.745 31.0747 31.7708 31.2803 31.7966 31.3831C31.8223 31.4859 31.8997 31.5631 32.0029 31.6402C32.106 31.7173 32.2607 31.743 32.5186 31.743V31.8458H30.5845V30.2779C29.6046 31.3831 28.4183 31.9229 27.0516 31.9229C26.0458 31.9229 25.2464 31.6402 24.6275 31.0747C24.0344 30.5092 23.7249 29.7124 23.7249 28.71V22.5928C23.7249 22.2329 23.6734 21.9759 23.596 21.8988C23.5186 21.796 23.3123 21.7446 22.9771 21.7446V21.6418H25.6848V21.7446ZM42.7564 29.8153V22.5671C42.7564 22.1815 42.6791 21.9502 42.5501 21.8474C42.4212 21.7703 42.2407 21.7189 42.0086 21.7189V21.6161H43.9943V21.7189C43.6848 21.7189 43.4785 21.796 43.3754 21.8988C43.2722 22.0273 43.1948 22.2586 43.1948 22.6442V32L35.0201 23.3124V30.8948C35.0201 31.1261 35.0458 31.306 35.0716 31.4345C35.0974 31.5631 35.149 31.6402 35.2264 31.6659C35.3037 31.7173 35.4585 31.743 35.7421 31.7944V31.8972H33.7822V31.7944C34.1433 31.7944 34.3496 31.743 34.4269 31.6145C34.5043 31.4859 34.5559 31.2032 34.5559 30.7149V23.7494C34.5559 23.1325 34.4785 22.6442 34.298 22.2586C34.1175 21.8731 33.7307 21.6932 33.1375 21.7189V21.6161H35.0716L42.7564 29.8153ZM44.8195 21.5904C44.8968 21.6161 45.0774 21.6418 45.3352 21.6418H52.1175C52.3754 21.6418 52.5817 21.6161 52.6848 21.5904C52.8137 21.5647 52.8911 21.4618 52.9427 21.2819H53.0458L52.5559 22.5157H52.4527C52.4785 22.4386 52.4785 22.3357 52.4785 22.2072C52.4785 22.1044 52.4527 22.0273 52.3754 22.0016C52.298 21.9759 52.1691 21.9502 52.0143 21.9502H49.3582V30.7149C49.3582 31.0747 49.3839 31.3317 49.4355 31.4602C49.4871 31.5888 49.5645 31.6659 49.6676 31.7173C49.7708 31.743 49.9255 31.7687 50.1576 31.7687V31.8715H47.3983V31.7687C47.7335 31.743 47.9656 31.6659 48.043 31.5631C48.1203 31.4602 48.1719 31.2289 48.1719 30.8691V21.9759H45.6189C45.361 21.9759 45.1805 22.0016 45.1031 22.0273C45.0258 22.053 44.9742 22.1301 44.9742 22.2586C44.9742 22.31 45 22.4128 45.0258 22.5414H44.9226L44.4327 21.3076H44.5358C44.6648 21.4361 44.7421 21.539 44.8195 21.5904ZM60.0602 23.0554H59.957C59.8281 22.5414 59.6991 22.2329 59.596 22.1301C59.4928 22.0273 59.2607 22.0016 58.8997 22.0016H55.5215V26.6024H58.6676C58.9771 26.6024 59.1834 26.5767 59.2607 26.5253C59.3381 26.4739 59.3897 26.3711 59.3897 26.2683H59.4928V27.245H59.3897C59.3639 27.1165 59.3123 27.0137 59.235 26.9622C59.1576 26.9108 59.0029 26.8851 58.7708 26.8851H55.5473V30.0466C55.5473 30.5349 55.5989 30.8691 55.6762 31.0747C55.7536 31.2803 55.9083 31.4088 56.0888 31.4602C56.2693 31.5116 56.5788 31.5373 56.9656 31.5373H58.7708C59.3381 31.5373 59.6991 31.5116 59.8797 31.4859C60.0344 31.4345 60.1633 31.3574 60.2923 31.2546C60.3954 31.1261 60.4986 30.8691 60.5501 30.4835H60.6533V31.8972H53.6648V31.7944C53.8968 31.7687 54.0774 31.743 54.2063 31.6659C54.3352 31.5888 54.3868 31.3831 54.3868 31.0747V22.7727C54.3868 22.3871 54.361 22.1301 54.2837 21.9759C54.2063 21.8217 54 21.7446 53.6648 21.7446V21.6161H60.086V23.0554H60.0602Z" fill="#5947B3"/>
</svg>
