<svg width="24" height="24" viewBox="0 0 24 24" fill="none" xmlns="http://www.w3.org/2000/svg">
<path fill-rule="evenodd" clip-rule="evenodd" d="M12 24C5.3736 24 0 18.6264 0 12C0 5.3736 5.3736 0 12 0C18.6264 0 24 5.3736 24 12C24 18.6264 18.6264 24 12 24ZM18 8.07029V7.75C18 7.61193 17.8967 7.5 17.7692 7.5H6.23077C6.10332 7.5 6 7.61193 6 7.75V8.07029L12 11.8806L18 8.07029ZM6 9.80902V16.25C6 16.3881 6.10332 16.5 6.23077 16.5H17.7692C17.8967 16.5 18 16.3881 18 16.25V9.80902L12.3501 13.397C12.1339 13.5343 11.8661 13.5343 11.6499 13.397L6 9.80902Z" fill="#5947B3"/>
</svg>
