<svg width="16" height="16" viewBox="0 0 16 16" fill="none" xmlns="http://www.w3.org/2000/svg">
<path fill-rule="evenodd" clip-rule="evenodd" d="M1.5 8C1.5 4.41015 4.41015 1.5 8 1.5C11.5899 1.5 14.5 4.41015 14.5 8C14.5 11.5899 11.5899 14.5 8 14.5C4.41015 14.5 1.5 11.5899 1.5 8ZM8 0C3.58172 0 0 3.58172 0 8C0 12.4183 3.58172 16 8 16C12.4183 16 16 12.4183 16 8C16 3.58172 12.4183 0 8 0ZM4.75 7.25C4.33579 7.25 4 7.58579 4 8C4 8.41421 4.33579 8.75 4.75 8.75C9.55252 8.75 7.64981 8.75 11.25 8.75C11.6642 8.75 12 8.41421 12 8C12 7.58579 11.6642 7.25 11.25 7.25C7.56021 7.25 8.88445 7.25 4.75 7.25Z" fill="#B3B3B3"/>
</svg>
