<svg width="16" height="16" viewBox="0 0 16 16" fill="none" xmlns="http://www.w3.org/2000/svg">
<path d="M8.49544 8.09152C10.5754 8.09152 12.2752 6.50168 12.2752 4.55622C12.2752 2.61076 10.5978 1 8.49544 1C6.39309 1 4.71569 2.58984 4.71569 4.5353C4.71569 6.48076 6.41546 8.09152 8.49544 8.09152ZM8.49544 2.79903C9.52424 2.79903 10.3518 3.57303 10.3518 4.5353C10.3518 5.49757 9.52424 6.27157 8.49544 6.27157C7.46663 6.27157 6.63911 5.49757 6.63911 4.5353C6.63911 3.57303 7.46663 2.79903 8.49544 2.79903ZM12.8567 8.5099C12.633 8.11244 12.0515 7.77774 11.2687 8.36347C10.1952 9.13747 8.49544 9.13747 8.49544 9.13747C8.49544 9.13747 6.79567 9.13747 5.72213 8.36347C4.93934 7.77774 4.33548 8.11244 4.13419 8.5099C3.75398 9.20022 4.17892 9.55585 5.14063 10.1207C5.94578 10.6018 7.06405 10.7901 7.77974 10.8528L7.17588 11.4176C6.326 12.2126 5.52084 12.9656 4.93934 13.5095C4.60386 13.8233 4.60386 14.3463 4.93934 14.6601L5.05117 14.7647C5.38665 15.0784 5.94578 15.0784 6.28127 14.7647L8.5178 12.6728C9.36768 13.4677 10.1728 14.2208 10.7543 14.7647C11.0898 15.0784 11.649 15.0784 11.9844 14.7647L12.0963 14.6601C12.4317 14.3463 12.4317 13.8233 12.0963 13.5095L9.85972 11.4176L9.25586 10.8528C9.97155 10.7901 11.0898 10.6018 11.895 10.1207C12.8119 9.55585 13.2369 9.22114 12.8567 8.5099Z" fill="#333333"/>
</svg>
