<svg width="22" height="22" viewBox="0 0 22 22" fill="none" xmlns="http://www.w3.org/2000/svg">
<path d="M16.198 8.63545C16.6007 8.23273 16.6007 7.57977 16.198 7.17705C15.7952 6.77432 15.1423 6.77432 14.7395 7.17705L9.28125 12.6353L7.26045 10.6145C6.85773 10.2118 6.20477 10.2118 5.80205 10.6145C5.39932 11.0173 5.39932 11.6702 5.80205 12.073L8.55205 14.823C8.95477 15.2257 9.60773 15.2257 10.0105 14.823L16.198 8.63545Z" fill="#01B957"/>
<path fill-rule="evenodd" clip-rule="evenodd" d="M0 11C0 4.92487 4.92487 0 11 0C17.0751 0 22 4.92487 22 11C22 17.0751 17.0751 22 11 22C4.92487 22 0 17.0751 0 11ZM2.0625 11C2.0625 6.06396 6.06396 2.0625 11 2.0625C15.936 2.0625 19.9375 6.06396 19.9375 11C19.9375 15.936 15.936 19.9375 11 19.9375C6.06396 19.9375 2.0625 15.936 2.0625 11Z" fill="#01B957"/>
</svg>
