<svg width="15" height="12" viewBox="0 0 15 12" fill="none" xmlns="http://www.w3.org/2000/svg">
<g clip-path="url(#clip0)">
<path fill-rule="evenodd" clip-rule="evenodd" d="M13 11.5H2C0.9 11.5 0 10.6239 0 9.65044V4.00442C0 2.93363 0.9 2.15487 2 2.15487H4C4 2.15487 4 2.15487 4 2.05752L4.2 1.66814C4.4 0.986726 5.2 0.5 5.9 0.5H9C9.7 0.5 10.5 0.986726 10.8 1.66814L11 2.05752C11 2.05752 11 2.05752 11 2.15487H13C14.1 2.15487 15 3.03097 15 4.00442V9.65044C15 10.6239 14.1 11.5 13 11.5ZM7.5 4.19912C5.8 4.19912 4.5 5.4646 4.5 7.11947C4.5 8.67699 5.9 10.0398 7.5 10.0398C9.1 10.0398 10.5 8.77434 10.5 7.11947C10.5 5.4646 9.2 4.19912 7.5 4.19912ZM13.7 3.61504H11.8V4.49115H13.7V3.61504ZM7.5 8.57965C6.6 8.57965 5.9 7.89823 5.9 7.02212C5.9 6.14602 6.6 5.4646 7.5 5.4646C8.4 5.4646 9.1 6.14602 9.1 7.02212C9.1 7.89823 8.4 8.57965 7.5 8.57965Z" fill="white"/>
</g>
<defs>
<clipPath id="clip0">
<rect width="15" height="11" fill="white" transform="translate(0 0.5)"/>
</clipPath>
</defs>
</svg>
