<svg width="16" height="16" viewBox="0 0 16 16" fill="none" xmlns="http://www.w3.org/2000/svg">
<path fill-rule="evenodd" clip-rule="evenodd" d="M1.6 4H3.2V0H12.8V4H14.4C15.2837 4 16 4.71634 16 5.6V12C16 12.8837 15.2837 13.6 14.4 13.6H12.8V16H3.2V13.6H1.6C0.716344 13.6 0 12.8837 0 12V5.6C0 4.71634 0.716344 4 1.6 4ZM11.2 4H4.8V1.6H11.2V4ZM14.4 5.6V12H12.8V10.4H3.2V12H1.6V5.6H14.4ZM11.1998 12H4.79979V14.4H11.1998V12ZM13.6 7.2C13.6 6.75817 13.2418 6.4 12.8 6.4C12.3582 6.4 12 6.75817 12 7.2C12 7.64183 12.3582 8 12.8 8C13.2418 8 13.6 7.64183 13.6 7.2Z" fill="#01B957"/>
</svg>
