<svg width="22" height="22" viewBox="0 0 22 22" fill="none" xmlns="http://www.w3.org/2000/svg">
<g clip-path="url(#clip0_710:1809)">
<path d="M21.8496 20.148L16.6332 14.9316C16.5344 14.8328 16.4055 14.7812 16.268 14.7812H15.7008C17.0543 13.2129 17.875 11.1719 17.875 8.9375C17.875 4.00039 13.8746 0 8.9375 0C4.00039 0 0 4.00039 0 8.9375C0 13.8746 4.00039 17.875 8.9375 17.875C11.1719 17.875 13.2129 17.0543 14.7812 15.7008V16.268C14.7812 16.4055 14.8371 16.5344 14.9316 16.6332L20.148 21.8496C20.35 22.0516 20.6766 22.0516 20.8785 21.8496L21.8496 20.8785C22.0516 20.6766 22.0516 20.35 21.8496 20.148V20.148ZM8.9375 15.8125C5.13906 15.8125 2.0625 12.7359 2.0625 8.9375C2.0625 5.13906 5.13906 2.0625 8.9375 2.0625C12.7359 2.0625 15.8125 5.13906 15.8125 8.9375C15.8125 12.7359 12.7359 15.8125 8.9375 15.8125Z" fill="#5947B3"/>
</g>
<defs>
<clipPath id="clip0_710:1809">
<rect width="22" height="22" fill="white"/>
</clipPath>
</defs>
</svg>
