<svg width="32" height="32" viewBox="0 0 32 32" fill="none" xmlns="http://www.w3.org/2000/svg">
<path fill-rule="evenodd" clip-rule="evenodd" d="M16 32C7.1648 32 0 24.8352 0 16C0 7.1648 7.1648 0 16 0C24.8352 0 32 7.1648 32 16C32 24.8352 24.8352 32 16 32ZM23.3888 10.2528C23.3664 10.128 23.3216 9.952 23.1616 9.8208C22.9696 9.664 22.6752 9.632 22.5408 9.6352C21.9392 9.6448 21.0144 9.968 16.5728 11.8144C15.0176 12.4608 11.9072 13.8016 7.2416 15.8336C6.4832 16.1344 6.0864 16.4288 6.0512 16.7168C5.9808 17.2704 6.7776 17.4432 7.7792 17.7664C8.5952 18.032 9.696 18.3424 10.2656 18.3552C10.784 18.3648 11.3632 18.1536 12 17.7152C16.3616 14.7712 18.6112 13.2864 18.752 13.2544C18.8512 13.232 18.9888 13.2032 19.0848 13.2864C19.1776 13.3696 19.168 13.5264 19.1584 13.568C19.0784 13.9072 14.9856 17.6288 14.7488 17.8752C13.8496 18.8096 12.8256 19.3824 14.4032 20.4224C15.7696 21.3216 16.5664 21.8976 17.9744 22.8224C18.8736 23.4112 19.5808 24.112 20.5088 24.0256C20.9376 23.9872 21.3792 23.584 21.6032 22.384C22.1344 19.5488 23.1744 13.4112 23.4144 10.88C23.4368 10.6592 23.4112 10.3744 23.3888 10.2528Z" fill="#34A6DF"/>
</svg>
