<svg width="17" height="16" viewBox="0 0 17 16" fill="none" xmlns="http://www.w3.org/2000/svg">
<path d="M1.92431 7.19738L10.8435 3.62195L14.6738 2.10509C14.6738 2.10509 15.9871 1.56336 15.9871 2.86352C15.9871 3.40525 15.604 5.30132 15.4399 7.19738L14.2908 13.0481C14.2908 13.0481 14.2908 13.969 13.5247 13.969C12.9775 14.1316 11.8284 13.4273 11.6096 13.2106C11.4454 13.0481 8.76417 11.3146 7.83395 10.5561C7.45092 10.3936 7.28676 10.0144 7.83395 9.41849C9.1472 8.11833 10.8435 6.60148 11.8284 5.68053C12.2115 5.30132 12.7586 4.16368 10.8435 5.51801L5.53576 9.09345C5.53576 9.09345 4.98857 9.47266 3.83947 9.09345L1.15825 8.33502C1.15825 8.33502 0.446904 7.73912 1.92431 7.19738Z" fill="#333333"/>
</svg>
