<svg width="24" height="24" viewBox="0 0 24 24" fill="none" xmlns="http://www.w3.org/2000/svg">
<path fill-rule="evenodd" clip-rule="evenodd" d="M12 24C5.3736 24 0 18.6264 0 12C0 5.3736 5.3736 0 12 0C18.6264 0 24 5.3736 24 12C24 18.6264 18.6264 24 12 24ZM17.5416 7.6896C17.5248 7.596 17.4912 7.464 17.3712 7.3656C17.2272 7.248 17.0064 7.224 16.9056 7.2264C16.4544 7.2336 15.7608 7.476 12.4296 8.8608C11.2632 9.3456 8.9304 10.3512 5.4312 11.8752C4.8624 12.1008 4.5648 12.3216 4.5384 12.5376C4.4856 12.9528 5.0832 13.0824 5.8344 13.3248C6.4464 13.524 7.272 13.7568 7.6992 13.7664C8.088 13.7736 8.5224 13.6152 9 13.2864C12.2712 11.0784 13.9584 9.9648 14.064 9.9408C14.1384 9.924 14.2416 9.9024 14.3136 9.9648C14.3832 10.0272 14.376 10.1448 14.3688 10.176C14.3088 10.4304 11.2392 13.2216 11.0616 13.4064C10.3872 14.1072 9.6192 14.5368 10.8024 15.3168C11.8272 15.9912 12.4248 16.4232 13.4808 17.1168C14.1552 17.5584 14.6856 18.084 15.3816 18.0192C15.7032 17.9904 16.0344 17.688 16.2024 16.788C16.6008 14.6616 17.3808 10.0584 17.5608 8.16C17.5776 7.9944 17.5584 7.7808 17.5416 7.6896Z" fill="#34A6DF"/>
</svg>
