<svg width="16" height="16" viewBox="0 0 16 16" fill="none" xmlns="http://www.w3.org/2000/svg">
<path d="M16 3.42574C15.4507 3.68713 14.8535 3.8297 14.2325 3.90099C14.8535 3.49703 15.3313 2.9505 15.594 2.21386C14.973 2.54653 14.3758 2.83168 13.6115 2.9505C13.0621 2.33267 12.25 2 11.3663 2C9.67042 2 8.30896 3.35446 8.30896 5.04158C8.30896 5.30297 8.30896 5.51683 8.38061 5.73069C5.84877 5.58812 3.57966 4.37624 2.02711 2.54653C1.76437 3.02178 1.62106 3.49703 1.62106 4.11485C1.62106 5.20792 2.17042 6.08713 2.98252 6.63366C2.50482 6.63366 2.02711 6.49109 1.62106 6.2297V6.27723C1.62106 7.77426 2.64813 8.98614 4.08125 9.27129C3.81851 9.34257 3.53189 9.41386 3.26915 9.41386C3.05418 9.41386 2.8631 9.41386 2.71979 9.34257C3.12584 10.5545 4.22456 11.4337 5.58603 11.4337C4.55896 12.2416 3.19749 12.7168 1.76437 12.7168C1.50163 12.7168 1.28666 12.7168 1.02393 12.6455C2.38539 13.5248 3.96182 14 5.72934 14C11.3902 14 14.4475 9.3901 14.4475 5.32673V4.92277C15.1163 4.56634 15.594 4.04356 16 3.42574Z" fill="#333333"/>
</svg>
