<svg width="32" height="32" viewBox="0 0 32 32" fill="none" xmlns="http://www.w3.org/2000/svg">
<path d="M16 0C7.17576 0 0 7.17576 0 16C0 24.8242 7.17576 32 16 32C24.8242 32 32 24.8242 32 16C32 7.17576 24.8242 0 16 0ZM15.4505 8.33939C15.5798 8.33939 15.6768 8.33939 15.8061 8.33939C15.8384 8.33939 15.903 8.33939 15.9354 8.33939C19.7495 8.46869 23.0788 11.9596 23.0141 15.7737C23.0141 16.1293 23.1434 16.6788 22.5939 16.6788C22.0444 16.6788 22.1737 16.1293 22.1737 15.7091C22.1091 15.1919 22.0444 14.7394 21.9152 14.2869C21.8182 13.8343 21.6889 13.4465 21.5273 13.0586C21.301 12.5091 21.0101 11.9919 20.6545 11.5717C19.6202 10.2788 18.0687 9.53535 15.8384 9.1798C15.4828 9.11515 14.998 9.1798 14.998 8.7596C15.0303 8.40404 15.2242 8.33939 15.4505 8.33939ZM20.7192 15.903C20.105 15.9677 20.2343 15.4182 20.1697 15.0626C19.7495 12.6384 18.9091 11.7333 16.4202 11.1838C16.0646 11.1192 15.5152 11.1838 15.5798 10.6343C15.6444 10.0848 16.1939 10.2788 16.5495 10.3434C19.0384 10.6343 21.0747 12.703 21.0747 15.0626C20.9778 15.3535 21.204 15.8384 20.7192 15.903ZM19.2 14.6747C19.2 14.9657 19.2 15.2889 18.7798 15.3535C18.4889 15.3535 18.3596 15.1596 18.2949 14.8687C18.2303 13.8343 17.6808 13.2848 16.6141 13.1232C16.3232 13.0586 16 12.9939 16.1293 12.5737C16.1939 12.2828 16.4848 12.2828 16.7434 12.2828C17.9394 12.2182 19.2 13.4788 19.2 14.6747ZM23.0788 22.303C22.6586 23.499 21.204 24.6626 19.9434 24.6626C19.8141 24.598 19.4586 24.598 19.103 24.4687C13.705 22.1091 9.66465 18.2626 7.43434 12.703C6.65859 10.8929 7.49899 9.30909 9.37374 8.66263C9.72929 8.53333 10.0525 8.53333 10.4081 8.66263C11.2485 8.95354 13.2525 11.798 13.3172 12.6061C13.3818 13.2848 12.897 13.6404 12.4768 13.9313C11.6364 14.4808 11.6364 15.2566 11.9919 16C12.8323 17.8101 14.2222 18.9737 15.9354 19.8141C16.5495 20.1051 17.196 20.1051 17.6162 19.3939C18.3919 18.198 19.3616 18.198 20.396 18.9737C20.8808 19.3293 21.4303 19.6525 21.9152 20.0727C22.6586 20.7192 23.499 21.204 23.0788 22.303Z" fill="#7360F2"/>
</svg>
