<svg width="15" height="10" viewBox="0 0 15 10" fill="none" xmlns="http://www.w3.org/2000/svg">
<path d="M14.702 2C14.6026 0.9 13.9073 0.3 12.8146 0.2C11.5232 0.1 8.64238 0 7.35099 0C4.66887 0 3.47682 0.1 2.18543 0.2C0.993377 0.3 0.397351 0.8 0.198675 1.9C0.0993377 2.6 0 3.3 0 5C0 6.5 0.0993377 7.4 0.198675 8.2C0.397351 9.3 1.09272 9.9 2.28477 10C3.57616 10 6.15894 10 7.54967 10C8.84106 10 11.6225 9.9 12.9139 9.8C14.0066 9.7 14.6026 9.1 14.8013 8.1C14.8013 8.1 15 6.9 15 4.9C14.9007 3.8 14.8013 2.7 14.702 2ZM5.86093 7V2.9L9.93377 5L5.86093 7Z" fill="white"/>
</svg>
