<svg width="24" height="16" viewBox="0 0 24 16" fill="none" xmlns="http://www.w3.org/2000/svg">
<g clip-path="url(#clip0_710:1833)">
<path d="M23.8559 7.39167C21.5976 2.98333 17.1226 0 12.0018 0C6.88098 0 2.40598 2.98333 0.147656 7.39167C-0.0440103 7.775 -0.0440103 8.225 0.147656 8.60833C2.40598 13.0167 6.88098 16 12.0018 16C17.1226 16 21.5976 13.0167 23.8559 8.60833C24.0518 8.225 24.0518 7.775 23.8559 7.39167ZM12.0018 14C8.68931 14 6.00181 11.3125 6.00181 8C6.00181 4.6875 8.68931 2 12.0018 2C15.3143 2 18.0018 4.6875 18.0018 8C18.0018 11.3125 15.3185 14 12.006 14H12.0018ZM12.0018 4C11.6435 4.00417 11.2893 4.05833 10.9476 4.15833C11.6018 5.04583 11.4101 6.29167 10.5226 6.94583C9.81847 7.4625 8.86014 7.4625 8.16014 6.94583C7.58097 9.075 8.83931 11.2667 10.9643 11.8417C13.0935 12.4208 15.2851 11.1625 15.8601 9.0375C16.4393 6.90833 15.181 4.71667 13.056 4.14167C12.7143 4.04583 12.356 4 12.0018 4V4Z" fill="white"/>
</g>
<defs>
<clipPath id="clip0_710:1833">
<rect width="24" height="16" fill="white"/>
</clipPath>
</defs>
</svg>
