<svg width="24" height="16" viewBox="0 0 24 16" fill="none" xmlns="http://www.w3.org/2000/svg">
<path d="M11.9984 3.33333C11.5568 3.34167 11.1192 3.40833 10.6984 3.54167C10.8942 3.88333 10.9984 4.27083 10.9984 4.66667C10.9984 5.95417 9.95252 7 8.66496 7C8.26911 6.99583 7.88159 6.89167 7.53991 6.7C6.82738 9.16667 8.25244 11.75 10.7234 12.4583C13.1943 13.1708 15.7736 11.7458 16.4861 9.275C17.1987 6.80417 15.7736 4.225 13.3027 3.5125C12.8776 3.39167 12.4401 3.33333 11.9984 3.33333ZM23.8531 7.39167C21.5947 2.98333 17.1195 0 11.9984 0C6.87738 0 2.40219 2.98333 0.143756 7.39167C-0.0479188 7.775 -0.0479188 8.225 0.143756 8.60833C2.40219 13.0167 6.87738 16 11.9984 16C17.1195 16 21.5947 13.0167 23.8531 8.60833C24.049 8.225 24.049 7.775 23.8531 7.39167ZM11.9984 14C7.88993 14 4.11893 11.7083 2.08551 8C4.11893 4.29167 7.88576 2 11.9984 2C16.1111 2 19.8779 4.29167 21.9114 8C19.8779 11.7083 16.1111 14 11.9984 14Z" fill="#5947B3"/>
</svg>
