<svg width="32" height="32" viewBox="0 0 32 32" fill="none" xmlns="http://www.w3.org/2000/svg">
<path d="M16 0C7.16667 0 0 7.16667 0 16C0 24.8333 7.16667 32 16 32C24.8333 32 32 24.8333 32 16C32 7.16667 24.8333 0 16 0ZM22.94 18.1133C23.0667 18.2667 23.3667 18.5733 23.84 19.0267H23.8533L23.8667 19.04L23.88 19.0533L23.9 19.0733C24.9467 20.04 25.6533 20.86 26.02 21.5267C26.04 21.5667 26.0667 21.6133 26.0933 21.6667C26.12 21.72 26.1467 21.82 26.1733 21.96C26.2 22.1 26.2 22.2267 26.1667 22.34C26.14 22.4533 26.0467 22.5533 25.8867 22.6467C25.7333 22.74 25.5133 22.7867 25.2333 22.7867L22.3933 22.8333C22.2133 22.8733 22.0067 22.8533 21.7733 22.78C21.5333 22.7067 21.3467 22.6267 21.1933 22.5333L20.9733 22.4C20.7533 22.2467 20.4933 22.0067 20.1933 21.6867C19.9 21.3667 19.6467 21.08 19.4333 20.8267C19.22 20.5733 18.9933 20.36 18.7533 20.18C18.5133 20.0067 18.3067 19.9467 18.1267 20.0067C18.1067 20.0133 18.0733 20.0267 18.04 20.0467C18 20.0667 17.94 20.12 17.8533 20.2067C17.7667 20.2933 17.6867 20.4067 17.6133 20.5333C17.54 20.66 17.48 20.8533 17.4267 21.1133C17.3733 21.3667 17.3467 21.6533 17.3533 21.9733C17.3533 22.0867 17.34 22.1867 17.3133 22.28C17.2867 22.3733 17.26 22.44 17.2267 22.4867L17.18 22.54C17.0467 22.68 16.8533 22.76 16.5933 22.7867H15.3133C14.7867 22.8133 14.2467 22.7533 13.6933 22.6067C13.14 22.4533 12.6533 22.26 12.2333 22.02C11.8133 21.78 11.4333 21.5333 11.0867 21.2867C10.74 21.04 10.48 20.8267 10.3067 20.6467L10.0267 20.38C9.95333 20.3067 9.85333 20.1933 9.72 20.0467C9.59333 19.9 9.32667 19.56 8.92667 19.0333C8.52667 18.5067 8.13333 17.9467 7.74667 17.36C7.36 16.7667 6.90667 15.9867 6.38667 15.02C5.86667 14.0533 5.38 13.0467 4.94 12C4.89333 11.88 4.87333 11.78 4.87333 11.7C4.87333 11.62 4.88667 11.56 4.90667 11.52L4.95333 11.4533C5.06667 11.3133 5.27333 11.24 5.58667 11.24L8.62667 11.22C8.71333 11.2333 8.8 11.26 8.88 11.2933C8.96 11.3267 9.02 11.36 9.06 11.3867L9.11333 11.42C9.23333 11.5 9.32 11.62 9.38 11.7733C9.52667 12.1467 9.7 12.5267 9.89333 12.92C10.0867 13.3133 10.24 13.62 10.3467 13.8267L10.5267 14.1467C10.74 14.5933 10.9467 14.9733 11.1467 15.3C11.3467 15.6267 11.5267 15.88 11.6867 16.06C11.8467 16.24 12 16.3867 12.1467 16.4867C12.2933 16.5933 12.42 16.64 12.5267 16.64C12.6333 16.64 12.7333 16.62 12.8267 16.5867C12.84 16.58 12.86 16.56 12.88 16.5333C12.9 16.5067 12.9467 16.42 13.0133 16.2867C13.08 16.1533 13.1267 15.98 13.16 15.7667C13.1933 15.5533 13.2267 15.2533 13.2667 14.8667C13.3067 14.48 13.3067 14.02 13.2667 13.48C13.2533 13.1867 13.22 12.9133 13.1667 12.6667C13.1133 12.42 13.06 12.2533 13.0133 12.1533L12.9467 12.02C12.76 11.7667 12.4467 11.6067 12 11.54C11.9067 11.5267 11.92 11.44 12.0533 11.2733C12.18 11.1333 12.32 11.02 12.4733 10.94C12.8667 10.7467 13.7533 10.66 15.1267 10.6733C15.7333 10.68 16.2333 10.7267 16.6267 10.82C16.7733 10.86 16.9 10.9067 17 10.9667C17.1 11.0267 17.1733 11.12 17.2267 11.2333C17.28 11.3467 17.32 11.4667 17.34 11.5867C17.3667 11.7067 17.38 11.88 17.38 12.0933C17.38 12.3067 17.3733 12.5133 17.3667 12.7067C17.36 12.9 17.3533 13.16 17.34 13.4867C17.3267 13.8133 17.32 14.12 17.32 14.4C17.32 14.48 17.3133 14.64 17.3067 14.8667C17.3 15.0933 17.3 15.2733 17.3 15.4C17.3067 15.5267 17.3133 15.6733 17.34 15.8467C17.36 16.02 17.4067 16.1667 17.4667 16.28C17.5267 16.3933 17.6133 16.4867 17.7133 16.5533C17.7733 16.5667 17.8333 16.58 17.9 16.6C17.9667 16.6133 18.06 16.5733 18.1867 16.48C18.3133 16.3867 18.4533 16.2533 18.6067 16.1C18.76 15.94 18.9533 15.6933 19.1867 15.3533C19.4133 15.02 19.6667 14.62 19.94 14.16C20.3867 13.3933 20.78 12.56 21.1267 11.66C21.1533 11.5867 21.1933 11.52 21.24 11.4667C21.2867 11.4133 21.3267 11.3733 21.36 11.3467L21.4067 11.3133C21.42 11.3067 21.44 11.3 21.46 11.2867C21.48 11.2733 21.5333 11.2667 21.6067 11.2533C21.68 11.24 21.7533 11.24 21.8267 11.2467L25.0267 11.2267C25.3133 11.1933 25.5533 11.2 25.74 11.2533C25.9267 11.3067 26.04 11.3733 26.0867 11.44L26.1533 11.5533C26.3267 12.0267 25.7667 13.1133 24.4867 14.82C24.3067 15.06 24.0667 15.3733 23.7667 15.7667C23.1867 16.5067 22.8533 16.9933 22.7667 17.22C22.66 17.52 22.7067 17.82 22.94 18.1133Z" fill="#4D7399"/>
</svg>
