<svg width="16" height="16" viewBox="0 0 16 16" fill="none" xmlns="http://www.w3.org/2000/svg">
<path d="M15.8996 12.1275C15.8753 12.0795 15.851 12.0556 15.851 12.0316C15.5835 11.5281 15.0487 10.9288 14.2707 10.2095L14.2464 10.1855C13.8817 9.84988 13.6629 9.63411 13.5657 9.51423C13.3955 9.29846 13.3469 9.08268 13.4441 8.84293C13.5171 8.67511 13.7602 8.31549 14.1978 7.76406C14.4166 7.47636 14.6111 7.23661 14.7326 7.06879C15.6808 5.82209 16.1184 5.00695 15.9725 4.64732L15.9239 4.5754C15.8996 4.52745 15.8023 4.4795 15.6565 4.43155C15.5106 4.3836 15.3404 4.3836 15.1216 4.40757L12.7148 4.43155C12.6662 4.43155 12.5932 4.43155 12.5446 4.43155C12.496 4.43155 12.4474 4.45552 12.4474 4.45552C12.4231 4.45552 12.4231 4.4795 12.3988 4.4795L12.3744 4.50347C12.3501 4.52745 12.3258 4.55142 12.2772 4.59937C12.2529 4.64732 12.2043 4.69527 12.2043 4.74322C11.9368 5.41452 11.6451 6.01389 11.3047 6.58929C11.1103 6.92494 10.9158 7.21264 10.7456 7.47636C10.5754 7.71611 10.4295 7.90791 10.308 8.02779C10.1864 8.14766 10.0892 8.24356 9.99193 8.31549C9.89469 8.38741 9.82175 8.41139 9.77313 8.41139C9.72451 8.41139 9.67589 8.38741 9.62726 8.38741C9.55433 8.33946 9.4814 8.26754 9.43277 8.19561C9.38415 8.09971 9.35984 8.00381 9.33553 7.88394C9.31122 7.76406 9.31122 7.64419 9.31122 7.54829C9.31122 7.45239 9.31122 7.33251 9.31122 7.16469C9.31122 6.99686 9.31122 6.87699 9.31122 6.82904C9.31122 6.61327 9.31122 6.39749 9.33553 6.15774C9.33553 5.91799 9.35984 5.72619 9.35984 5.58234C9.35984 5.4385 9.35984 5.29465 9.35984 5.12682C9.35984 4.959 9.35984 4.83912 9.33553 4.74322C9.31122 4.64732 9.28691 4.5754 9.23828 4.4795C9.18966 4.3836 9.14104 4.33565 9.0681 4.2877C8.99517 4.23975 8.89793 4.21577 8.80068 4.16782C8.50895 4.04795 8.14428 4 7.68236 4C6.66129 4 5.98057 4.04795 5.68884 4.1918C5.56728 4.26372 5.47004 4.33565 5.37279 4.43155C5.27555 4.55142 5.25124 4.62335 5.32417 4.62335C5.66453 4.6713 5.88333 4.79117 6.0292 4.98297L6.07782 5.07887C6.12644 5.1508 6.15075 5.27067 6.19938 5.46247C6.248 5.65427 6.27231 5.84607 6.27231 6.06184C6.29662 6.46942 6.29662 6.80507 6.27231 7.09276C6.248 7.38046 6.22369 7.59624 6.19938 7.76406C6.17506 7.93189 6.12644 8.05176 6.07782 8.14766C6.0292 8.24356 6.00488 8.31549 5.98057 8.33946C5.95626 8.36344 5.95626 8.36344 5.93195 8.38741C5.85902 8.41139 5.78608 8.43536 5.71315 8.43536C5.64022 8.43536 5.54297 8.38741 5.42141 8.31549C5.29986 8.24356 5.20261 8.12369 5.08106 8.00381C4.9595 7.85996 4.83794 7.69214 4.66776 7.45239C4.5219 7.21264 4.35172 6.92494 4.20585 6.58929L4.08429 6.34954C4.01136 6.20569 3.8898 5.96594 3.74394 5.67824C3.59807 5.39055 3.47651 5.10285 3.35496 4.83912C3.30633 4.71925 3.2334 4.64732 3.16047 4.5754L3.11184 4.55142C3.08753 4.52745 3.03891 4.50347 2.99029 4.4795C2.91735 4.45552 2.86873 4.43155 2.7958 4.43155L0.534848 4.40757C0.291735 4.40757 0.145868 4.45552 0.0486225 4.5754L0.0243113 4.62335C0 4.64732 0 4.69527 0 4.74322C0 4.81515 0.0243113 4.88707 0.0486225 4.959C0.38898 5.72619 0.753649 6.46942 1.14263 7.18866C1.53161 7.90791 1.87197 8.48331 2.1637 8.91486C2.45544 9.34641 2.74717 9.75398 3.03891 10.1616C3.33064 10.5691 3.52513 10.8089 3.62238 10.9048C3.71962 11.0247 3.79256 11.0966 3.84118 11.1445L4.05998 11.3363C4.18154 11.4562 4.40034 11.624 4.64345 11.8158C4.91088 12.0076 5.1783 12.1754 5.49435 12.3672C5.81039 12.5351 6.17506 12.6789 6.58836 12.7988C7.00165 12.9187 7.41494 12.9666 7.80392 12.9426H8.75206C8.94655 12.9187 9.09242 12.8707 9.18966 12.7508L9.21397 12.7029C9.23828 12.6789 9.2626 12.631 9.28691 12.559C9.31122 12.4871 9.31122 12.4152 9.31122 12.3433C9.31122 12.1035 9.33553 11.8877 9.35984 11.6959C9.40846 11.5041 9.45709 11.3603 9.50571 11.2644C9.55433 11.1685 9.62726 11.0966 9.67589 11.0247C9.74882 10.9527 9.79744 10.9288 9.82176 10.9048C9.84607 10.8808 9.87038 10.8808 9.89469 10.8808C10.0162 10.8329 10.1864 10.8808 10.3566 11.0007C10.5268 11.1206 10.697 11.2884 10.8671 11.4802C11.0373 11.672 11.2075 11.8877 11.4263 12.1275C11.6451 12.3672 11.8396 12.5351 12.0098 12.6549L12.1799 12.7508C12.3015 12.8228 12.4231 12.8707 12.6176 12.9426C12.7877 12.9906 12.9579 13.0146 13.0795 12.9906L15.2189 12.9666C15.4377 12.9666 15.5835 12.9426 15.7051 12.8707C15.8266 12.7988 15.8996 12.7269 15.9239 12.6549C15.9482 12.583 15.9482 12.4871 15.9239 12.3672C15.9239 12.2234 15.8996 12.1515 15.8996 12.1275Z" fill="#333333"/>
</svg>
