<svg width="32" height="32" viewBox="0 0 32 32" fill="none" xmlns="http://www.w3.org/2000/svg">
<path fill-rule="evenodd" clip-rule="evenodd" d="M16 32C7.17576 32 0 24.8242 0 16C0 7.17576 7.17576 0 16 0C24.8242 0 32 7.17576 32 16C32 24.8242 24.8242 32 16 32ZM23.5313 7.98384C21.6889 6.14141 19.2646 5.13939 16.6465 5.13939C11.2808 5.13939 6.91717 9.50303 6.91717 14.8687C6.91717 16.5818 7.3697 18.2626 8.2101 19.7172L6.8202 24.7596L11.9596 23.402C13.3818 24.1778 14.9657 24.598 16.6141 24.598C21.9798 24.598 26.3434 20.2343 26.3434 14.8687C26.3758 12.2505 25.3737 9.82626 23.5313 7.98384ZM16.6465 22.9495C15.1919 22.9495 13.7697 22.5616 12.5414 21.8182L12.2505 21.6566L9.1798 22.4646L9.98788 19.4909L9.79394 19.2C8.98586 17.9071 8.56566 16.4202 8.56566 14.901C8.56566 10.4404 12.1859 6.8202 16.6465 6.8202C18.8121 6.8202 20.8485 7.66061 22.3677 9.1798C23.8869 10.699 24.7273 12.7354 24.7273 14.901C24.7273 19.3293 21.1071 22.9495 16.6465 22.9495ZM21.5596 17.1636C21.4949 17.0667 21.3333 17.002 21.1071 16.8727C20.8808 16.7434 19.6848 16.1616 19.4586 16.097C19.2323 16 19.0707 15.9677 18.9091 16.2263C18.7475 16.4848 18.2949 17.002 18.1333 17.1636C18.004 17.3253 17.8424 17.3576 17.6162 17.2283C17.3899 17.099 16.5818 16.8404 15.6768 16.0323C14.9657 15.3859 14.4808 14.5778 14.3192 14.3515C14.1899 14.0929 14.3192 13.9636 14.4162 13.8667C14.5131 13.7697 14.6747 13.5758 14.7717 13.4465C14.901 13.3172 14.9333 13.1879 15.0303 13.0263C15.1273 12.8646 15.0626 12.7354 14.998 12.6061C14.9333 12.4768 14.4485 11.2808 14.2545 10.796C14.0606 10.3111 13.8667 10.3758 13.7051 10.3758C13.5758 10.3758 13.4141 10.3758 13.2525 10.3758C13.0909 10.3758 12.8323 10.4404 12.6061 10.6667C12.3798 10.9253 11.7657 11.5071 11.7657 12.703C11.7657 13.899 12.6384 15.0626 12.7677 15.2242C12.897 15.3859 14.4808 17.8424 16.9051 18.8768C17.4869 19.1354 17.9394 19.2646 18.2949 19.3939C18.8768 19.5879 19.3939 19.5556 19.8141 19.4909C20.2667 19.4263 21.2364 18.9091 21.4626 18.3273C21.5919 17.7778 21.5919 17.2606 21.5596 17.1636Z" fill="#25D366"/>
</svg>
