<svg width="24" height="24" viewBox="0 0 24 24" fill="none" xmlns="http://www.w3.org/2000/svg">
<path fill-rule="evenodd" clip-rule="evenodd" d="M12 24C5.38182 24 0 18.6182 0 12C0 5.38182 5.38182 0 12 0C18.6182 0 24 5.38182 24 12C24 18.6182 18.6182 24 12 24ZM17.6485 5.98788C16.2667 4.60606 14.4485 3.85455 12.4848 3.85455C8.46061 3.85455 5.18788 7.12727 5.18788 11.1515C5.18788 12.4364 5.52727 13.697 6.15758 14.7879L5.11515 18.5697L8.9697 17.5515C10.0364 18.1333 11.2242 18.4485 12.4606 18.4485C16.4848 18.4485 19.7576 15.1758 19.7576 11.1515C19.7818 9.18788 19.0303 7.3697 17.6485 5.98788ZM12.4848 17.2121C11.3939 17.2121 10.3273 16.9212 9.40606 16.3636L9.18788 16.2424L6.88485 16.8485L7.49091 14.6182L7.34545 14.4C6.73939 13.4303 6.42424 12.3152 6.42424 11.1758C6.42424 7.8303 9.13939 5.11515 12.4848 5.11515C14.1091 5.11515 15.6364 5.74545 16.7758 6.88485C17.9152 8.02424 18.5455 9.55152 18.5455 11.1758C18.5455 14.497 15.8303 17.2121 12.4848 17.2121ZM16.1697 12.8727C16.1212 12.8 16 12.7515 15.8303 12.6545C15.6606 12.5576 14.7636 12.1212 14.5939 12.0727C14.4242 12 14.303 11.9758 14.1818 12.1697C14.0606 12.3636 13.7212 12.7515 13.6 12.8727C13.503 12.9939 13.3818 13.0182 13.2121 12.9212C13.0424 12.8242 12.4364 12.6303 11.7576 12.0242C11.2242 11.5394 10.8606 10.9333 10.7394 10.7636C10.6424 10.5697 10.7394 10.4727 10.8121 10.4C10.8848 10.3273 11.0061 10.1818 11.0788 10.0848C11.1758 9.98788 11.2 9.89091 11.2727 9.7697C11.3455 9.64849 11.297 9.55152 11.2485 9.45455C11.2 9.35758 10.8364 8.46061 10.6909 8.09697C10.5455 7.73333 10.4 7.78182 10.2788 7.78182C10.1818 7.78182 10.0606 7.78182 9.93939 7.78182C9.81818 7.78182 9.62424 7.8303 9.45455 8C9.28485 8.19394 8.82424 8.6303 8.82424 9.52727C8.82424 10.4242 9.47879 11.297 9.57576 11.4182C9.67273 11.5394 10.8606 13.3818 12.6788 14.1576C13.1152 14.3515 13.4545 14.4485 13.7212 14.5455C14.1576 14.6909 14.5455 14.6667 14.8606 14.6182C15.2 14.5697 15.9273 14.1818 16.097 13.7455C16.1939 13.3333 16.1939 12.9455 16.1697 12.8727Z" fill="#25D366"/>
</svg>
