<svg width="16" height="16" viewBox="0 0 16 16" fill="none" xmlns="http://www.w3.org/2000/svg">
<path d="M13.6611 2.32727C12.1728 0.819835 10.1528 0 8.02658 0C3.6412 0 0.0531561 3.5438 0.0531561 7.93388C0.0531561 9.33554 0.425249 10.6843 1.11628 11.9008L0 16L4.22591 14.8893C5.39535 15.524 6.69767 15.8413 8.02658 15.8413C12.412 15.8413 16 12.2975 16 7.90744C16 5.81818 15.1761 3.83471 13.6611 2.32727ZM8.02658 14.519C6.83056 14.519 5.66113 14.2017 4.65116 13.5934L4.41196 13.4612L1.91362 14.1223L2.57807 11.6893L2.4186 11.4512C1.75415 10.3934 1.40864 9.20331 1.40864 7.93388C1.40864 4.31074 4.38538 1.34876 8.02658 1.34876C9.80731 1.34876 11.4551 2.03636 12.7043 3.27934C13.9535 4.52231 14.6445 6.18843 14.6445 7.93388C14.6445 11.557 11.6944 14.519 8.02658 14.519Z" fill="#333333"/>
<path d="M11.6678 9.57334C11.4818 9.46755 10.4984 8.99152 10.3123 8.93863C10.1263 8.85929 9.99338 8.83284 9.86049 9.04441C9.7276 9.25598 9.3555 9.67912 9.22261 9.81135C9.1163 9.94358 8.98341 9.97003 8.79736 9.86424C8.61132 9.75846 7.94687 9.54689 7.20268 8.88573C6.61796 8.35681 6.21929 7.7221 6.0864 7.51053C5.98009 7.29896 6.0864 7.19317 6.16614 7.11383C6.24587 7.03449 6.35218 6.87582 6.45849 6.77003C6.56481 6.66425 6.59138 6.55846 6.64454 6.45268C6.72428 6.32045 6.67112 6.21466 6.61796 6.10888C6.56481 6.00309 6.16614 5.02458 6.00667 4.62788C5.8472 4.23119 5.68773 4.28408 5.55484 4.28408C5.44853 4.28408 5.31564 4.28408 5.18275 4.28408C5.04986 4.28408 4.83723 4.33698 4.65119 4.5221C4.46514 4.73367 3.96016 5.2097 3.96016 6.16177C3.96016 7.11383 4.67776 8.0659 4.78408 8.19813C4.89039 8.33036 6.19271 10.3403 8.18607 11.1866C8.66447 11.3981 9.03657 11.5039 9.32893 11.6097C9.80733 11.7684 10.2326 11.7419 10.5781 11.689C10.9502 11.6361 11.7475 11.213 11.9336 10.737C12.1196 10.2609 12.093 9.89069 12.0399 9.78491C11.9867 9.73201 11.8538 9.67912 11.6678 9.57334Z" fill="#333333"/>
</svg>
