<svg width="32" height="32" viewBox="0 0 32 32" fill="none" xmlns="http://www.w3.org/2000/svg">
<path fill-rule="evenodd" clip-rule="evenodd" d="M16 32C7.17576 32 0 24.8242 0 16C0 7.17576 7.17576 0 16 0C24.8242 0 32 7.17576 32 16C32 24.8242 24.8242 32 16 32ZM24.9212 11.9273C24.7596 10.5697 23.9515 9.72929 22.5616 9.6C21.0101 9.47071 17.5515 9.37374 15.9677 9.37374C12.703 9.37374 11.2485 9.43838 9.69697 9.6C8.2101 9.76162 7.56364 10.4081 7.33737 11.7657C7.17576 12.703 7.07879 13.6081 7.07879 15.7091C7.07879 17.5838 7.17576 18.7798 7.30505 19.7818C7.49899 21.1394 8.43636 21.9151 9.79394 22.0444C11.4101 22.1737 14.6101 22.2384 16.1939 22.2384C17.7131 22.2384 21.1717 22.1737 22.6909 21.9798C24.0485 21.8182 24.7273 21.1071 24.9212 19.7495C24.9212 19.7495 25.1475 18.2626 25.1475 15.7091C25.1475 14.2222 25.0505 12.8646 24.9212 11.9273ZM14.1899 13.1232L19.1354 15.7091L14.1899 18.3273V13.1232Z" fill="#CF3427"/>
</svg>
