<svg width="16" height="20" viewBox="0 0 16 20" fill="none" xmlns="http://www.w3.org/2000/svg">
<path d="M0.95 7.7H2.8C2.9 6.75 3.11667 5.85833 3.45 5.025C3.78333 4.19167 4.23333 3.475 4.8 2.875C5.36667 2.25833 6.04167 1.775 6.825 1.425C7.60833 1.075 8.49167 0.899999 9.475 0.899999C11.1917 0.899999 12.5833 1.38333 13.65 2.35C14.7333 3.3 15.375 4.64167 15.575 6.375H13.525C13.3417 5.175 12.8917 4.25 12.175 3.6C11.475 2.93333 10.575 2.6 9.475 2.6C8.14167 2.6 7.09167 3.06667 6.325 4C5.55833 4.91667 5.09167 6.15 4.925 7.7H10.9L10.625 9.15H4.875V11.1H10.25L9.975 12.55H4.95C5.11667 14.1 5.575 15.3083 6.325 16.175C7.09167 17.025 8.15833 17.45 9.525 17.45C10.6917 17.45 11.6333 17.1083 12.35 16.425C13.0833 15.725 13.55 14.7 13.75 13.35H15.775C15.575 15.2167 14.9167 16.6667 13.8 17.7C12.7 18.7167 11.275 19.225 9.525 19.225C8.575 19.225 7.70833 19.0583 6.925 18.725C6.14167 18.3917 5.45833 17.9333 4.875 17.35C4.30833 16.75 3.85 16.0417 3.5 15.225C3.15 14.4083 2.91667 13.5167 2.8 12.55H0.95V11.1H2.725V9.15H0.95V7.7Z" fill="#5947B3"/>
</svg>
