<svg width="15" height="18" viewBox="0 0 15 18" fill="none" xmlns="http://www.w3.org/2000/svg">
<path d="M8.475 9C9.75833 9 10.7333 8.7 11.4 8.1C12.0667 7.48333 12.4 6.6 12.4 5.45V5.35C12.4 4.08333 12.05 3.19167 11.35 2.675C10.65 2.14167 9.69167 1.875 8.475 1.875H5.425V9H8.475ZM5.425 13.875V18H3.25V13.875H0.75V12.425H3.25V10.475H0.75V9.025H3.25V0.124999H8.325C9.175 0.124999 9.975 0.224999 10.725 0.425C11.4917 0.608333 12.1583 0.916666 12.725 1.35C13.2917 1.76667 13.7417 2.30833 14.075 2.975C14.4083 3.625 14.575 4.41667 14.575 5.35V5.45C14.575 6.4 14.4083 7.20833 14.075 7.875C13.7417 8.54167 13.2917 9.09167 12.725 9.525C12.1583 9.94167 11.4917 10.25 10.725 10.45C9.975 10.6333 9.175 10.725 8.325 10.725H5.425V12.425H11.5V13.875H5.425Z" fill="#5947B3"/>
</svg>
